<svg width="112" height="112" viewBox="0 0 112 112" fill="none" xmlns="http://www.w3.org/2000/svg" xmlns:xlink="http://www.w3.org/1999/xlink">
<path d="M32.338,63.832C34.06,64.71 36.168,64.025 37.045,62.302C37.923,60.58 37.238,58.472 35.515,57.595L32.338,63.832ZM25.9,58.8L25.9,55.3C25.818,55.3 25.736,55.303 25.654,55.309L25.9,58.8ZM25.9,93.66L25.654,97.152C25.736,97.157 25.818,97.16 25.9,97.16L25.9,93.66ZM77.653,93.66L77.679,90.16L77.653,90.16L77.653,93.66ZM94.64,87.127L92.339,84.489C92.316,84.509 92.294,84.53 92.271,84.55L94.64,87.127ZM81.573,44.24L78.121,44.815C78.375,46.34 79.599,47.518 81.132,47.712L81.573,44.24ZM22.839,59.984C23.493,61.803 25.498,62.748 27.317,62.094C29.136,61.44 30.081,59.435 29.427,57.616L22.839,59.984ZM35.515,57.595C32.542,56.08 29.243,55.3 25.9,55.3L25.9,62.3C28.156,62.3 30.364,62.827 32.338,63.832L35.515,57.595ZM25.654,55.309C-0.525,57.155 -0.525,95.306 25.654,97.152L26.146,90.169C8.644,88.935 8.644,63.526 26.146,62.292L25.654,55.309ZM25.9,97.16L77.653,97.16L77.653,90.16L25.9,90.16L25.9,97.16ZM77.627,97.16C84.81,97.213 91.733,94.553 97.008,89.704L92.271,84.55C88.307,88.194 83.097,90.2 77.679,90.16L77.627,97.16ZM96.941,89.764C105.827,82.013 107.781,70.418 104.789,60.603C101.798,50.788 93.708,42.253 82.014,40.768L81.132,47.712C89.645,48.794 95.765,55.005 98.094,62.644C100.422,70.282 98.806,78.848 92.339,84.489L96.941,89.764ZM85.026,43.665C83.054,31.824 77.203,23.711 69.505,19.19C61.89,14.717 52.806,13.957 44.616,16.11C36.426,18.263 28.882,23.395 24.429,31.032C19.927,38.752 18.782,48.696 22.839,59.984L29.427,57.616C25.994,48.068 27.124,40.307 30.476,34.558C33.876,28.727 39.763,24.624 46.396,22.88C53.028,21.137 60.157,21.817 65.96,25.226C71.681,28.585 76.452,34.793 78.121,44.815L85.026,43.665Z" fill="#C4BAC1"/>
<path d="M72.401,43.163C70.672,44.027 69.972,46.13 70.836,47.858C71.7,49.587 73.803,50.288 75.532,49.424L72.401,43.163ZM81.82,47.879C83.753,47.846 85.293,46.252 85.259,44.32C85.226,42.387 83.632,40.847 81.699,40.88L81.82,47.879ZM75.532,49.424C77.492,48.444 79.638,47.917 81.82,47.879L81.699,40.88C78.468,40.936 75.294,41.716 72.401,43.163L75.532,49.424Z" fill="#C4BAC1"/>
</svg>
