<svg width="44" height="44" viewBox="0 0 44 44" fill="none" xmlns="http://www.w3.org/2000/svg" xmlns:xlink="http://www.w3.org/1999/xlink">
<path d="M12.161,24.802C13.039,25.249 14.113,24.9 14.561,24.022C15.008,23.144 14.659,22.07 13.781,21.622L12.161,24.802ZM9.902,22.481L9.902,20.696C9.86,20.696 9.818,20.698 9.777,20.701L9.902,22.481ZM9.902,35.808L9.777,37.588C9.818,37.591 9.86,37.592 9.902,37.592L9.902,35.808ZM29.689,35.808L29.702,34.024L29.689,34.024L29.689,35.808ZM36.183,33.31L35.01,31.966C34.998,31.976 34.987,31.986 34.975,31.997L36.183,33.31ZM31.187,16.914L29.427,17.207C29.557,17.984 30.181,18.585 30.962,18.684L31.187,16.914ZM8.312,23.084C8.646,24.011 9.668,24.493 10.595,24.16C11.522,23.826 12.004,22.804 11.67,21.877L8.312,23.084ZM13.781,21.622C12.58,21.011 11.25,20.696 9.902,20.696L9.902,24.265C10.696,24.265 11.47,24.45 12.161,24.802L13.781,21.622ZM9.777,20.701C-0.785,21.445 -0.785,36.843 9.777,37.588L10.028,34.029C3.889,33.596 3.889,24.693 10.028,24.26L9.777,20.701ZM9.902,37.592L29.689,37.592L29.689,34.024L9.902,34.024L9.902,37.592ZM29.675,37.592C32.534,37.614 35.29,36.555 37.39,34.624L34.975,31.997C33.543,33.313 31.661,34.039 29.702,34.024L29.675,37.592ZM37.356,34.655C40.907,31.557 41.676,26.931 40.49,23.04C39.304,19.149 36.086,15.738 31.412,15.144L30.962,18.684C34.014,19.071 36.229,21.298 37.077,24.08C37.925,26.862 37.328,29.944 35.01,31.966L37.356,34.655ZM32.947,16.621C32.174,11.978 29.868,8.754 26.799,6.952C23.772,5.174 20.175,4.879 16.944,5.728C13.714,6.577 10.724,8.604 8.954,11.64C7.16,14.717 6.721,18.658 8.312,23.084L11.67,21.877C10.398,18.337 10.829,15.509 12.037,13.437C13.27,11.322 15.415,9.819 17.851,9.179C20.288,8.538 22.889,8.794 24.992,10.029C27.053,11.239 28.809,13.491 29.427,17.207L32.947,16.621Z" fill="url(#ps_0_i_18_414;10_188)"/>
<path d="M27.681,16.502C27.02,16.833 26.752,17.636 27.082,18.297C27.413,18.958 28.217,19.226 28.878,18.896L27.681,16.502ZM31.282,18.305C32.021,18.293 32.609,17.683 32.597,16.944C32.584,16.206 31.975,15.617 31.236,15.63L31.282,18.305ZM28.878,18.896C29.627,18.521 30.448,18.32 31.282,18.305L31.236,15.63C30,15.651 28.787,15.949 27.681,16.502L28.878,18.896Z" fill="url(#ps_0_i_18_414;10_189)"/>
<defs>
<linearGradient id="ps_0_i_18_414;10_188" x1="21.433" y1="7.055" x2="21.433" y2="35.809" gradientUnits="userSpaceOnUse">
<stop stop-color="#DA2183"/>
<stop offset="0.401" stop-color="#F634D7" stop-opacity="0.693"/>
<stop offset="0.734" stop-color="#511A3E" stop-opacity="0.9"/>
<stop offset="1" stop-color="#D01277" stop-opacity="0.96"/>
</linearGradient>
<linearGradient id="ps_0_i_18_414;10_189" x1="29.769" y1="16.968" x2="29.769" y2="17.699" gradientUnits="userSpaceOnUse">
<stop stop-color="#DA2183"/>
<stop offset="0.401" stop-color="#F634D7" stop-opacity="0.693"/>
<stop offset="0.734" stop-color="#511A3E" stop-opacity="0.9"/>
<stop offset="1" stop-color="#D01277" stop-opacity="0.96"/>
</linearGradient>
</defs>
</svg>
