<svg width="112" height="112" viewBox="0 0 112 112" fill="none" xmlns="http://www.w3.org/2000/svg" xmlns:xlink="http://www.w3.org/1999/xlink">
<path d="M94.593,87.173L92.285,84.542C92.265,84.56 92.245,84.578 92.225,84.597L94.593,87.173ZM77.607,93.707L77.633,90.207L77.607,90.207L77.607,93.707ZM25.853,93.707L25.599,97.198C25.684,97.204 25.769,97.207 25.853,97.207L25.853,93.707ZM25.853,58.8L25.853,55.3C25.769,55.3 25.684,55.303 25.6,55.309L25.853,58.8ZM26.087,58.8L26.087,62.3C27.225,62.3 28.293,61.746 28.948,60.815C29.604,59.884 29.766,58.692 29.382,57.62L26.087,58.8ZM74.667,28.14L78.167,28.14C78.167,27.326 77.883,26.537 77.363,25.909L74.667,28.14ZM74.667,28.187L71.167,28.187C71.167,28.992 71.444,29.772 71.952,30.396L74.667,28.187ZM81.527,44.287L78.074,44.858C78.326,46.384 79.549,47.563 81.083,47.759L81.527,44.287ZM96.367,52.407L93.683,54.653L93.694,54.666L96.367,52.407ZM92.225,84.597C88.26,88.241 83.05,90.247 77.633,90.207L77.581,97.207C84.763,97.26 91.686,94.599 96.962,89.75L92.225,84.597ZM77.607,90.207L25.853,90.207L25.853,97.207L77.607,97.207L77.607,90.207ZM26.107,90.216C8.592,88.941 8.645,63.56 26.107,62.291L25.6,55.309C-0.618,57.214 -0.472,95.299 25.599,97.198L26.107,90.216ZM25.853,62.3L26.087,62.3L26.087,55.3L25.853,55.3L25.853,62.3ZM29.382,57.62C26.488,49.539 26.87,42.755 29.055,37.412C31.255,32.032 35.397,27.834 40.486,25.168C50.8,19.764 64.186,20.963 71.97,30.371L77.363,25.909C67.04,13.431 49.837,12.366 37.237,18.967C30.869,22.304 25.474,27.675 22.576,34.763C19.662,41.887 19.385,50.468 22.792,59.98L29.382,57.62ZM71.167,28.14L71.167,28.187L78.167,28.187L78.167,28.14L71.167,28.14ZM71.952,30.396C74.797,33.891 77.043,38.631 78.074,44.858L84.98,43.715C83.77,36.41 81.07,30.509 77.381,25.977L71.952,30.396ZM81.083,47.759C86.362,48.433 90.62,50.994 93.683,54.653L99.051,50.16C94.927,45.233 89.104,41.727 81.97,40.815L81.083,47.759ZM93.694,54.666C100.859,63.142 101.236,76.69 92.285,84.542L96.901,89.805C109.23,78.99 108.207,60.991 99.039,50.147L93.694,54.666Z" fill="#C4BAC1"/>
<path d="M96.367,52.407L93.683,54.653C94.899,56.106 97.05,56.327 98.536,55.153L96.367,52.407ZM81.527,44.287L78.074,44.858C78.326,46.383 79.549,47.562 81.083,47.758L81.527,44.287ZM74.667,28.187L71.167,28.187C71.167,28.991 71.444,29.772 71.952,30.396L74.667,28.187ZM74.667,28.14L72.172,25.685C71.528,26.339 71.167,27.221 71.167,28.14L74.667,28.14ZM99.027,39.667C99.027,43.698 97.162,47.318 94.197,49.66L98.536,55.153C103.131,51.522 106.027,45.902 106.027,39.667L99.027,39.667ZM99.051,50.16C94.927,45.233 89.104,41.727 81.97,40.815L81.083,47.758C86.362,48.433 90.62,50.994 93.683,54.653L99.051,50.16ZM84.98,43.715C83.77,36.409 81.07,30.509 77.381,25.977L71.952,30.396C74.797,33.891 77.043,38.631 78.074,44.858L84.98,43.715ZM78.167,28.187L78.167,28.14L71.167,28.14L71.167,28.187L78.167,28.187ZM77.161,30.595C79.458,28.261 82.673,26.833 86.193,26.833L86.193,19.833C80.754,19.833 75.755,22.045 72.172,25.685L77.161,30.595ZM86.193,26.833C93.267,26.833 99.027,32.593 99.027,39.667L106.027,39.667C106.027,28.727 97.133,19.833 86.193,19.833L86.193,26.833Z" fill="#C4BAC1"/>
</svg>
