<svg width="94" height="276" viewBox="0 0 94 276" fill="none" xmlns="http://www.w3.org/2000/svg" xmlns:xlink="http://www.w3.org/1999/xlink">
<path d="M80.42,267.489C71.687,277.461 56.392,278.553 47.587,268.645C34.209,253.589 23.249,236.485 15.151,217.935C3.842,192.033 -1.609,163.955 -0.813,135.703C-0.017,107.452 7.007,79.724 19.756,54.501C28.886,36.437 40.792,19.976 54.996,5.698C64.345,-3.699 79.555,-1.747 87.713,8.7L87.713,8.7C95.87,19.147 93.832,34.114 84.883,43.892C76.043,53.552 68.535,64.4 62.595,76.153C53.033,95.071 47.765,115.867 47.168,137.055C46.571,158.243 50.659,179.303 59.141,198.729C64.41,210.799 71.295,222.053 79.577,232.195C87.961,242.461 89.154,257.519 80.42,267.489L80.42,267.489Z" transform="rotate(276.357 191.111 141.111)" fill="url(#pf_0_12_64)"/>
<defs>
<linearGradient id="pf_0_12_64" x1="231.241" y1="374.92" x2="141.529" y2="-88.265" gradientUnits="userSpaceOnUse">
<stop offset="0.135" stop-color="#A01760"/>
<stop offset="0.584" stop-color="#D8036E"/>
<stop offset="0.896" stop-color="#DA68A5" stop-opacity="0.7"/>
<stop offset="0.896" stop-color="#DA68A5" stop-opacity="0.7"/>
</linearGradient>
</defs>
</svg>
