<svg width="382" height="330" viewBox="0 0 382 330" fill="none" xmlns="http://www.w3.org/2000/svg" xmlns:xlink="http://www.w3.org/1999/xlink">
<path d="M359.111,191.111C372.365,191.111 383.265,180.325 381.613,167.173C378.599,143.194 371.077,119.926 359.365,98.621C343.787,70.283 321.305,46.338 294.003,29.008C266.699,11.679 235.463,1.526 203.189,-0.508C170.916,-2.543 138.651,3.608 109.389,17.372C80.126,31.136 54.815,52.068 35.802,78.226C16.789,104.384 4.691,134.921 0.631,167.003C-3.43,199.085 0.679,231.673 12.575,261.743C21.518,284.349 34.645,304.981 51.195,322.593C60.272,332.253 75.532,330.735 83.984,320.523L83.984,320.523C92.436,310.313 90.824,295.295 82.158,285.265C71.626,273.079 63.176,259.167 57.209,244.085C48.287,221.531 45.206,197.091 48.251,173.03C51.296,148.969 60.37,126.066 74.629,106.448C88.889,86.829 107.873,71.13 129.819,60.807C151.766,50.483 175.964,45.871 200.169,47.396C224.375,48.922 247.803,56.537 268.279,69.534C288.757,82.531 305.619,100.49 317.301,121.744C325.115,135.958 330.443,151.338 333.115,167.222C335.315,180.293 345.857,191.111 359.111,191.111L359.111,191.111Z" transform="rotate(276.357 191.111 191.111)" fill="url(#pf_0_12_59)"/>
<defs>
<linearGradient id="pf_0_12_59" x1="231.241" y1="424.92" x2="141.529" y2="-38.265" gradientUnits="userSpaceOnUse">
<stop offset="0.135" stop-color="#A01760"/>
<stop offset="0.584" stop-color="#D8036E"/>
<stop offset="0.896" stop-color="#DA68A5" stop-opacity="0.7"/>
<stop offset="0.896" stop-color="#DA68A5" stop-opacity="0.7"/>
</linearGradient>
</defs>
</svg>
