<svg width="48" height="48" viewBox="0 0 48 48" fill="none" xmlns="http://www.w3.org/2000/svg" xmlns:xlink="http://www.w3.org/1999/xlink">
<path d="M29.06,18.94L30.121,20.001C30.706,19.415 30.706,18.465 30.121,17.879L29.06,18.94ZM18.94,29.06L17.879,30.121C18.465,30.707 19.415,30.707 20.001,30.121L18.94,29.06ZM27.999,17.879L17.879,27.999L20.001,30.121L30.121,20.001L27.999,17.879ZM20.001,27.999C18.969,26.968 18.34,25.564 18.34,24L15.34,24C15.34,26.396 16.311,28.552 17.879,30.121L20.001,27.999ZM18.34,24C18.34,20.869 20.868,18.34 24,18.34L24,15.34C19.212,15.34 15.34,19.212 15.34,24L18.34,24ZM24,18.34C25.564,18.34 26.968,18.969 27.999,20.001L30.121,17.879C28.552,16.311 26.396,15.34 24,15.34L24,18.34Z" fill="#F6ECF1" fill-opacity="0.7"/>
<path d="M34.737,12.738C35.398,13.236 36.339,13.105 36.838,12.443C37.336,11.782 37.205,10.841 36.543,10.342L34.737,12.738ZM5.78,18.82L7.044,19.627L7.046,19.625L5.78,18.82ZM5.78,29.2L7.045,28.394L7.044,28.393L5.78,29.2ZM10.222,36.677C10.85,37.217 11.797,37.146 12.337,36.518C12.877,35.89 12.806,34.943 12.178,34.403L10.222,36.677ZM36.543,10.342C32.811,7.527 28.499,5.96 24,5.96L24,8.96C27.781,8.96 31.469,10.273 34.737,12.738L36.543,10.342ZM24,5.96C16.304,5.96 9.296,10.498 4.514,18.015L7.046,19.625C11.424,12.742 17.576,8.96 24,8.96L24,5.96ZM4.516,18.013C3.425,19.722 2.93,21.911 2.93,24.01C2.93,26.108 3.425,28.298 4.516,30.007L7.044,28.393C6.335,27.282 5.93,25.691 5.93,24.01C5.93,22.328 6.335,20.738 7.044,19.627L4.516,18.013ZM4.515,30.006C6.167,32.6 8.102,34.854 10.222,36.677L12.178,34.403C10.298,32.786 8.553,30.76 7.045,28.394L4.515,30.006Z" fill="#F6ECF1" fill-opacity="0.7"/>
<path d="M17.422,37.678C16.659,37.356 15.779,37.715 15.458,38.478C15.136,39.242 15.494,40.121 16.258,40.443L17.422,37.678ZM42.22,29.18L40.956,28.373L40.954,28.375L42.22,29.18ZM42.22,18.8L40.954,19.604L40.956,19.607L42.22,18.8ZM41.269,14.92C40.75,14.274 39.805,14.172 39.16,14.691C38.514,15.211 38.412,16.155 38.931,16.8L41.269,14.92ZM16.258,40.443C18.71,41.475 21.327,42.04 24,42.04L24,39.04C21.753,39.04 19.53,38.565 17.422,37.678L16.258,40.443ZM24,42.04C31.696,42.04 38.704,37.503 43.486,29.985L40.954,28.375C36.576,35.258 30.424,39.04 24,39.04L24,42.04ZM43.484,29.987C44.575,28.278 45.07,26.089 45.07,23.99C45.07,21.892 44.575,19.702 43.484,17.993L40.956,19.607C41.665,20.718 42.07,22.309 42.07,23.99C42.07,25.672 41.665,27.262 40.956,28.373L43.484,29.987ZM43.486,17.996C42.791,16.9 42.037,15.875 41.269,14.92L38.931,16.8C39.643,17.686 40.329,18.62 40.954,19.604L43.486,17.996Z" fill="#F6ECF1" fill-opacity="0.7"/>
<path d="M32.495,25.672C32.645,24.857 32.107,24.075 31.292,23.925C30.477,23.775 29.695,24.313 29.545,25.128L32.495,25.672ZM25.108,29.565C24.293,29.715 23.755,30.497 23.905,31.312C24.055,32.127 24.837,32.665 25.652,32.515L25.108,29.565ZM29.545,25.128C29.138,27.336 27.316,29.158 25.108,29.565L25.652,32.515C29.084,31.882 31.862,29.104 32.495,25.672L29.545,25.128Z" fill="#F6ECF1" fill-opacity="0.7"/>
<path d="M20.001,30.121C20.586,29.535 20.586,28.585 20.001,27.999C19.415,27.414 18.465,27.414 17.879,27.999L20.001,30.121ZM2.939,42.939C2.354,43.525 2.354,44.475 2.939,45.061C3.525,45.646 4.475,45.646 5.061,45.061L2.939,42.939ZM17.879,27.999L2.939,42.939L5.061,45.061L20.001,30.121L17.879,27.999Z" fill="#F6ECF1" fill-opacity="0.7"/>
<path d="M45.061,5.061C45.646,4.475 45.646,3.525 45.061,2.939C44.475,2.354 43.525,2.354 42.939,2.939L45.061,5.061ZM27.999,17.879C27.414,18.465 27.414,19.415 27.999,20.001C28.585,20.586 29.535,20.586 30.121,20.001L27.999,17.879ZM42.939,2.939L27.999,17.879L30.121,20.001L45.061,5.061L42.939,2.939Z" fill="#F6ECF1" fill-opacity="0.7"/>
</svg>
