<svg width="44" height="44" viewBox="0 0 44 44" fill="none" xmlns="http://www.w3.org/2000/svg" xmlns:xlink="http://www.w3.org/1999/xlink">
<path d="M37.4,32.421C36.817,32.421 36.257,32.177 35.844,31.743C35.432,31.308 35.2,30.719 35.2,30.105C35.2,29.491 35.432,28.902 35.844,28.468C36.257,28.033 36.817,27.789 37.4,27.789C37.983,27.789 38.543,27.545 38.956,27.111C39.368,26.677 39.6,26.088 39.6,25.474L39.6,6.947C39.6,6.333 39.368,5.744 38.956,5.31C38.543,4.876 37.983,4.632 37.4,4.632L6.6,4.632C6.017,4.632 5.457,4.876 5.044,5.31C4.632,5.744 4.4,6.333 4.4,6.947L4.4,25.474C4.4,26.088 4.632,26.677 5.044,27.111C5.457,27.545 6.017,27.789 6.6,27.789L28.6,27.789C29.183,27.789 29.743,28.033 30.156,28.468C30.568,28.902 30.8,29.491 30.8,30.105C30.8,30.719 30.568,31.308 30.156,31.743C29.743,32.177 29.183,32.421 28.6,32.421L6.6,32.421C4.85,32.421 3.171,31.689 1.933,30.386C0.695,29.083 0,27.316 0,25.474L0,6.947C0,5.105 0.695,3.338 1.933,2.035C3.171,0.732 4.85,0 6.6,0L37.4,0C39.15,0 40.829,0.732 42.067,2.035C43.305,3.338 44,5.105 44,6.947L44,25.474C44,27.316 43.305,29.083 42.067,30.386C40.829,31.689 39.15,32.421 37.4,32.421Z" fill="#58606A"/>
<path d="M31.438,13.223C31.036,12.779 30.808,12.192 30.8,11.579C30.808,10.966 31.036,10.379 31.438,9.935C31.86,9.512 32.418,9.272 33,9.263C33.582,9.272 34.14,9.512 34.562,9.935C34.964,10.379 35.192,10.966 35.2,11.579C35.192,12.192 34.964,12.779 34.562,13.223C34.14,13.646 33.582,13.886 33,13.895C32.418,13.886 31.86,13.646 31.438,13.223Z" fill="#58606A"/>
<path d="M33,23.158L11,23.158C10.417,23.158 9.857,22.914 9.444,22.48C9.032,22.045 8.8,21.456 8.8,20.842C8.8,20.228 9.032,19.639 9.444,19.205C9.857,18.77 10.417,18.526 11,18.526L33,18.526C33.583,18.526 34.143,18.77 34.556,19.205C34.968,19.639 35.2,20.228 35.2,20.842C35.2,21.456 34.968,22.045 34.556,22.48C34.143,22.914 33.583,23.158 33,23.158Z" fill="#58606A"/>
<path d="M13.2,44C12.617,44 12.057,43.756 11.644,43.322C11.232,42.887 11,42.298 11,41.684L11,37.053C11,36.438 11.232,35.849 11.644,35.415C12.057,34.981 12.617,34.737 13.2,34.737C13.783,34.737 14.343,34.981 14.756,35.415C15.168,35.849 15.4,36.438 15.4,37.053L15.4,41.684C15.4,42.298 15.168,42.887 14.756,43.322C14.343,43.756 13.783,44 13.2,44Z" fill="#58606A"/>
<path d="M22,44C21.417,44 20.857,43.756 20.444,43.322C20.032,42.887 19.8,42.298 19.8,41.684L19.8,37.053C19.8,36.438 20.032,35.849 20.444,35.415C20.857,34.981 21.417,34.737 22,34.737C22.583,34.737 23.143,34.981 23.556,35.415C23.968,35.849 24.2,36.438 24.2,37.053L24.2,41.684C24.2,42.298 23.968,42.887 23.556,43.322C23.143,43.756 22.583,44 22,44Z" fill="#58606A"/>
<path d="M30.8,44C30.217,44 29.657,43.756 29.244,43.322C28.832,42.887 28.6,42.298 28.6,41.684L28.6,37.053C28.6,36.438 28.832,35.849 29.244,35.415C29.657,34.981 30.217,34.737 30.8,34.737C31.384,34.737 31.943,34.981 32.356,35.415C32.768,35.849 33,36.438 33,37.053L33,41.684C33,42.298 32.768,42.887 32.356,43.322C31.943,43.756 31.384,44 30.8,44Z" fill="#58606A"/>
</svg>
