<svg width="64" height="64" viewBox="0 0 64 64" fill="none" xmlns="http://www.w3.org/2000/svg" xmlns:xlink="http://www.w3.org/1999/xlink">
<path d="M64,10C64,4.477 59.523,0 54,0L10,0C4.477,0 0,4.477 0,10L0,54C0,59.523 4.477,64 10,64L54,64C59.523,64 64,59.523 64,54L64,10Z" fill="#FFFFFF"/>
<path d="M47.66,32.364C47.66,31.229 47.558,30.138 47.369,29.091L32.3,29.091L32.3,35.28L40.911,35.28C40.54,37.28 39.413,38.975 37.718,40.109L37.718,44.124L42.889,44.124C45.914,41.338 47.66,37.236 47.66,32.364Z" clip-rule="evenodd" fill-rule="evenodd" fill="#4285F4"/>
<path d="M32.299,48C36.619,48 40.241,46.567 42.888,44.124L37.717,40.109C36.285,41.069 34.452,41.636 32.299,41.636C28.132,41.636 24.605,38.822 23.346,35.04L18.001,35.04L18.001,39.185C20.634,44.414 26.045,48 32.299,48Z" clip-rule="evenodd" fill-rule="evenodd" fill="#34A853"/>
<path d="M23.347,35.04C23.027,34.08 22.845,33.054 22.845,32C22.845,30.945 23.027,29.92 23.347,28.96L23.347,24.814L18.002,24.814C16.918,26.974 16.3,29.418 16.3,32C16.3,34.582 16.918,37.025 18.002,39.185L23.347,35.04Z" clip-rule="evenodd" fill-rule="evenodd" fill="#FBBC05"/>
<path d="M32.299,22.364C34.648,22.364 36.757,23.171 38.416,24.756L43.005,20.167C40.234,17.585 36.612,16 32.299,16C26.045,16 20.634,19.585 18.001,24.815L23.346,28.96C24.605,25.178 28.132,22.364 32.299,22.364Z" clip-rule="evenodd" fill-rule="evenodd" fill="#EA4335"/>
</svg>
