<svg width="48" height="48" viewBox="0 0 48 48" fill="none" xmlns="http://www.w3.org/2000/svg" xmlns:xlink="http://www.w3.org/1999/xlink">
<path d="M12.026,31.399C11.694,32.158 12.04,33.042 12.799,33.374C13.558,33.706 14.442,33.36 14.774,32.601L12.026,31.399ZM20.4,16L21.768,15.384C21.525,14.844 20.985,14.497 20.392,14.5C19.799,14.503 19.264,14.855 19.026,15.399L20.4,16ZM26.232,32.616C26.572,33.371 27.46,33.708 28.216,33.368C28.971,33.028 29.308,32.14 28.968,31.384L26.232,32.616ZM14.774,32.601L21.774,16.601L19.026,15.399L12.026,31.399L14.774,32.601ZM19.032,16.616L26.232,32.616L28.968,31.384L21.768,15.384L19.032,16.616Z" fill="#717171"/>
<line x1="15" y1="25.1" x2="25.8" y2="25.1" stroke="#717171" stroke-width="1.5" stroke-miterlimit="10"/>
<line x1="31.1" y1="21.4" x2="31.1" y2="32" stroke="#717171" stroke-width="1.5" stroke-miterlimit="10" stroke-linecap="round" stroke-linejoin="round"/>
<path d="M30,42.5L18,42.5L18,45.5L30,45.5L30,42.5ZM18,42.5C13.148,42.5 10.142,41.52 8.311,39.689C6.48,37.858 5.5,34.852 5.5,30L2.5,30C2.5,35.148 3.52,39.142 6.189,41.811C8.858,44.48 12.852,45.5 18,45.5L18,42.5ZM5.5,30L5.5,18L2.5,18L2.5,30L5.5,30ZM5.5,18C5.5,13.148 6.48,10.142 8.311,8.311C10.142,6.48 13.148,5.5 18,5.5L18,2.5C12.852,2.5 8.858,3.52 6.189,6.189C3.52,8.858 2.5,12.852 2.5,18L5.5,18ZM18,5.5L30,5.5L30,2.5L18,2.5L18,5.5ZM30,5.5C34.852,5.5 37.858,6.48 39.689,8.311C41.52,10.142 42.5,13.148 42.5,18L45.5,18C45.5,12.852 44.48,8.858 41.811,6.189C39.142,3.52 35.148,2.5 30,2.5L30,5.5ZM42.5,18L42.5,30L45.5,30L45.5,18L42.5,18ZM42.5,30C42.5,34.852 41.52,37.858 39.689,39.689C37.858,41.52 34.852,42.5 30,42.5L30,45.5C35.148,45.5 39.142,44.48 41.811,41.811C44.48,39.142 45.5,35.148 45.5,30L42.5,30Z" fill="#717171"/>
<line x1="30.68" y1="32" x2="30.68" y2="16.068" stroke="#717171" stroke-width="2" stroke-miterlimit="3.999327" stroke-linecap="round" stroke-linejoin="round"/>
</svg>
