<svg width="64" height="64" viewBox="0 0 64 64" fill="none" xmlns="http://www.w3.org/2000/svg" xmlns:xlink="http://www.w3.org/1999/xlink">
<path d="M23.2,48L16.4,48L16.4,26.6L23.2,26.6L23.2,48ZM19.8,23.6C17.6,23.6 16,22 16,19.8C16,17.6 17.8,16 19.8,16C22,16 23.6,17.6 23.6,19.8C23.6,22 22,23.6 19.8,23.6ZM48,48L41.2,48L41.2,36.4C41.2,33 39.8,32 37.8,32C35.8,32 33.8,33.6 33.8,36.6L33.8,48L27,48L27,26.6L33.4,26.6L33.4,29.6C34,28.2 36.4,26 39.8,26C43.6,26 47.6,28.2 47.6,34.8L47.6,48L48,48Z" fill="#FFFFFF"/>
</svg>
