<svg width="48" height="48" viewBox="0 0 48 48" fill="none" xmlns="http://www.w3.org/2000/svg" xmlns:xlink="http://www.w3.org/1999/xlink">
<path d="M28.74,20.62C28.74,23.238 26.618,25.36 24,25.36L24,28.36C28.275,28.36 31.74,24.895 31.74,20.62L28.74,20.62ZM24,25.36C21.382,25.36 19.26,23.238 19.26,20.62L16.26,20.62C16.26,24.895 19.725,28.36 24,28.36L24,25.36ZM19.26,20.62C19.26,18.002 21.382,15.88 24,15.88L24,12.88C19.725,12.88 16.26,16.345 16.26,20.62L19.26,20.62ZM24,15.88C26.618,15.88 28.74,18.002 28.74,20.62L31.74,20.62C31.74,16.345 28.275,12.88 24,12.88L24,15.88Z" fill="#717171"/>
<path d="M7.24,16.98L5.777,16.647L5.777,16.649L7.24,16.98ZM40.76,17L39.297,17.331L39.297,17.331L40.76,17ZM31.2,41.08L30.161,39.998L30.158,40.001L31.2,41.08ZM16.78,41.08L15.739,42.16L15.741,42.162L16.78,41.08ZM8.703,17.313C10.489,9.461 17.173,5.495 24.006,5.5C30.84,5.505 37.52,9.479 39.297,17.331L42.223,16.669C40.08,7.201 31.97,2.505 24.009,2.5C16.047,2.495 7.931,7.179 5.777,16.647L8.703,17.313ZM39.297,17.331C41.411,26.671 35.625,34.751 30.161,39.998L32.239,42.162C37.855,36.769 44.709,27.649 42.223,16.669L39.297,17.331ZM30.158,40.001C26.721,43.318 21.28,43.322 17.819,39.998L15.741,42.162C20.36,46.598 27.639,46.602 32.242,42.159L30.158,40.001ZM17.821,40C12.376,34.753 6.588,26.652 8.703,17.311L5.777,16.649C3.292,27.628 10.144,36.767 15.739,42.16L17.821,40Z" fill="#717171"/>
</svg>
