<svg width="48" height="48" viewBox="0 0 48 48" fill="none" xmlns="http://www.w3.org/2000/svg" xmlns:xlink="http://www.w3.org/1999/xlink">
<path d="M10.5,20C10.5,20.828 11.172,21.5 12,21.5C12.828,21.5 13.5,20.828 13.5,20L10.5,20ZM34.5,20C34.5,20.828 35.172,21.5 36,21.5C36.828,21.5 37.5,20.828 37.5,20L34.5,20ZM13.5,20L13.5,16L10.5,16L10.5,20L13.5,20ZM13.5,16C13.5,12.78 14.001,10.218 15.418,8.458C16.779,6.769 19.257,5.5 24,5.5L24,2.5C18.743,2.5 15.221,3.921 13.082,6.577C10.999,9.162 10.5,12.6 10.5,16L13.5,16ZM24,5.5C28.743,5.5 31.221,6.769 32.582,8.458C33.999,10.218 34.5,12.78 34.5,16L37.5,16C37.5,12.6 37.001,9.162 34.918,6.577C32.779,3.921 29.257,2.5 24,2.5L24,5.5ZM34.5,16L34.5,20L37.5,20L37.5,16L34.5,16Z" fill="#A01760" fill-opacity="0.7"/>
<path d="M34,42.5L14,42.5L14,45.5L34,45.5L34,42.5ZM14,42.5C9.989,42.5 8.084,41.962 7.061,40.939C6.038,39.916 5.5,38.011 5.5,34L2.5,34C2.5,37.989 2.962,41.084 4.939,43.061C6.916,45.038 10.011,45.5 14,45.5L14,42.5ZM5.5,34L5.5,30L2.5,30L2.5,34L5.5,34ZM5.5,30C5.5,25.989 6.038,24.084 7.061,23.061C8.084,22.038 9.989,21.5 14,21.5L14,18.5C10.011,18.5 6.916,18.962 4.939,20.939C2.962,22.916 2.5,26.011 2.5,30L5.5,30ZM14,21.5L34,21.5L34,18.5L14,18.5L14,21.5ZM34,21.5C38.011,21.5 39.916,22.038 40.939,23.061C41.962,24.084 42.5,25.989 42.5,30L45.5,30C45.5,26.011 45.038,22.916 43.061,20.939C41.084,18.962 37.989,18.5 34,18.5L34,21.5ZM42.5,30L42.5,34L45.5,34L45.5,30L42.5,30ZM42.5,34C42.5,38.011 41.962,39.916 40.939,40.939C39.916,41.962 38.011,42.5 34,42.5L34,45.5C37.989,45.5 41.084,45.038 43.061,43.061C45.038,41.084 45.5,37.989 45.5,34L42.5,34Z" fill="#A01760" fill-opacity="0.7"/>
<path d="M31.993,30C30.888,30 29.993,30.895 29.993,32C29.993,33.105 30.888,34 31.993,34L31.993,30ZM32.011,34C33.115,34 34.011,33.105 34.011,32C34.011,30.895 33.115,30 32.011,30L32.011,34ZM31.993,34L32.011,34L32.011,30L31.993,30L31.993,34Z" fill="#A01760" fill-opacity="0.7"/>
<path d="M23.991,30C22.886,30 21.991,30.895 21.991,32C21.991,33.105 22.886,34 23.991,34L23.991,30ZM24.009,34C25.113,34 26.009,33.105 26.009,32C26.009,30.895 25.113,30 24.009,30L24.009,34ZM23.991,34L24.009,34L24.009,30L23.991,30L23.991,34Z" fill="#A01760" fill-opacity="0.7"/>
<path d="M15.989,30C14.884,30 13.989,30.895 13.989,32C13.989,33.105 14.884,34 15.989,34L15.989,30ZM16.007,34C17.112,34 18.007,33.105 18.007,32C18.007,30.895 17.112,30 16.007,30L16.007,34ZM15.989,34L16.007,34L16.007,30L15.989,30L15.989,34Z" fill="#A01760" fill-opacity="0.7"/>
</svg>
