<svg width="60" height="60" viewBox="0 0 60 60" fill="none" xmlns="http://www.w3.org/2000/svg" xmlns:xlink="http://www.w3.org/1999/xlink">
<path d="M13.625,34.65L15.338,35.682L15.343,35.674L13.625,34.65ZM10.75,39.425L9.037,38.393L9.036,38.394L10.75,39.425ZM13.45,46.75L12.809,48.644L12.816,48.647L13.45,46.75ZM46.625,46.75L45.997,44.851L45.991,44.853L46.625,46.75ZM49.325,39.425L51.04,38.396L51.038,38.393L49.325,39.425ZM46.45,34.65L44.718,35.649L44.727,35.666L44.737,35.682L46.45,34.65ZM30.05,5.275C20.67,5.275 13.05,12.895 13.05,22.275L17.05,22.275C17.05,15.105 22.88,9.275 30.05,9.275L30.05,5.275ZM13.05,22.275L13.05,29.5L17.05,29.5L17.05,22.275L13.05,22.275ZM13.05,29.5C13.05,30.022 12.931,30.795 12.701,31.624C12.471,32.453 12.174,33.178 11.907,33.626L15.343,35.674C15.851,34.822 16.267,33.734 16.555,32.694C16.844,31.655 17.05,30.503 17.05,29.5L13.05,29.5ZM11.912,33.618L9.037,38.393L12.463,40.457L15.338,35.682L11.912,33.618ZM9.036,38.394C7.866,40.339 7.619,42.527 8.34,44.476C9.061,46.422 10.671,47.921 12.809,48.644L14.091,44.856C12.979,44.479 12.352,43.791 12.091,43.087C11.831,42.385 11.859,41.461 12.464,40.456L9.036,38.394ZM12.816,48.647C24.003,52.384 36.072,52.384 47.259,48.647L45.991,44.853C35.627,48.316 24.447,48.316 14.084,44.853L12.816,48.647ZM47.253,48.649C51.502,47.244 53.345,42.238 51.04,38.396L47.61,40.454C48.605,42.112 47.798,44.256 45.997,44.851L47.253,48.649ZM51.038,38.393L48.163,33.618L44.737,35.682L47.612,40.457L51.038,38.393ZM48.182,33.651C47.92,33.195 47.626,32.462 47.397,31.63C47.169,30.797 47.05,30.022 47.05,29.5L43.05,29.5C43.05,30.503 43.256,31.653 43.54,32.688C43.824,33.725 44.23,34.805 44.718,35.649L48.182,33.651ZM47.05,29.5L47.05,22.275L43.05,22.275L43.05,29.5L47.05,29.5ZM47.05,22.275C47.05,12.92 39.404,5.275 30.05,5.275L30.05,9.275C37.195,9.275 43.05,15.13 43.05,22.275L47.05,22.275Z" fill="#FFFFFF"/>
<path d="M34.675,8L34.257,9.441C34.806,9.6 35.397,9.433 35.783,9.011C36.168,8.589 36.28,7.985 36.072,7.453L34.675,8ZM32.275,7.5L32.089,8.988L32.095,8.989L32.275,7.5ZM25.425,8L24.028,7.453C23.82,7.985 23.932,8.589 24.317,9.012C24.703,9.434 25.295,9.6 25.844,9.44L25.425,8ZM35.093,6.559C34.253,6.316 33.373,6.122 32.456,6.011L32.095,8.989C32.827,9.078 33.547,9.234 34.257,9.441L35.093,6.559ZM32.461,6.012C29.87,5.688 27.363,5.874 25.006,6.56L25.844,9.44C27.787,8.876 29.88,8.712 32.089,8.988L32.461,6.012ZM26.822,8.547C27.328,7.256 28.584,6.35 30.05,6.35L30.05,3.35C27.316,3.35 24.972,5.044 24.028,7.453L26.822,8.547ZM30.05,6.35C31.516,6.35 32.772,7.256 33.278,8.547L36.072,7.453C35.128,5.044 32.784,3.35 30.05,3.35L30.05,6.35Z" fill="#FFFFFF"/>
<path d="M35.55,47.65C35.55,50.67 33.07,53.15 30.05,53.15L30.05,57.15C35.28,57.15 39.55,52.88 39.55,47.65L35.55,47.65ZM30.05,53.15C28.553,53.15 27.156,52.527 26.164,51.536L23.336,54.364C25.044,56.073 27.447,57.15 30.05,57.15L30.05,53.15ZM26.164,51.536C25.173,50.544 24.55,49.147 24.55,47.65L20.55,47.65C20.55,50.253 21.627,52.656 23.336,54.364L26.164,51.536Z" fill="#FFFFFF"/>
</svg>
