<svg width="124" height="124" viewBox="0 0 124 124" fill="none" xmlns="http://www.w3.org/2000/svg" xmlns:xlink="http://www.w3.org/1999/xlink">
<g filter="url(#filter13_564)">
<circle cx="62" cy="62" r="62" fill="url(#pf_0_13_564)"/>
</g>
<circle cx="62" cy="62" r="50" fill="url(#pf_0_13_565)"/>
<circle cx="62" cy="62" r="50" fill="url(#ps_0_13_566)"/>
<path d="M65.879,79.961C67.05,81.133 68.95,81.133 70.121,79.961C71.293,78.79 71.293,76.89 70.121,75.719L65.879,79.961ZM54.96,64.8L57.081,62.679L54.96,64.8ZM54.96,59.2L57.081,61.321L54.96,59.2ZM70.121,48.281C71.293,47.11 71.293,45.21 70.121,44.039C68.95,42.867 67.05,42.867 65.879,44.039L70.121,48.281ZM70.121,75.719L57.081,62.679L52.839,66.921L65.879,79.961L70.121,75.719ZM57.081,62.679C56.713,62.31 56.713,61.69 57.081,61.321L52.839,57.079C50.127,59.79 50.127,64.21 52.839,66.921L57.081,62.679ZM57.081,61.321L70.121,48.281L65.879,44.039L52.839,57.079L57.081,61.321Z" fill="#818181"/>
<defs>
<filter id="filter13_564" x="-20" y="-20" width="112" height="112" filterUnits="userSpaceOnUse" color-interpolation-filters="sRGB">
<feFlood flood-opacity="0" result="BackgroundImageFix"/>
<feColorMatrix in="SourceAlpha" type="matrix" values="0 0 0 0 0 0 0 0 0 0 0 0 0 0 0 0 0 0 127 0" result="hardAlpha"/>
<feMorphology radius="0" operator="dilate" in="SourceAlpha" result="0dropshadow"/>
<feOffset dx="10" dy="10"/>
<feGaussianBlur stdDeviation="10"/>
<feComposite in2="hardAlpha" operator="out"/>
<feColorMatrix type="matrix" values="0 0 0 0 0 0 0 0 0 0 0 0 0 0 0 0 0 0 0.25 0"/>
<feBlend mode="normal" in2="BackgroundImageFix" result="0dropshadow"/>
<feBlend mode="normal" in="SourceGraphic" in2="0dropshadow" result="shape"/>
<feGaussianBlur stdDeviation="10" result="1foregroundblur"/>
</filter>
<radialGradient id="pf_0_13_564" cx="0" cy="0" r="1" gradientUnits="userSpaceOnUse" gradientTransform="matrix(41.499998 43.000003 -43.000003 41.499998 17.5 7)">
<stop stop-color="#675D67"/>
<stop offset="1" stop-color="#1A1319"/>
</radialGradient>
<radialGradient id="pf_0_13_565" cx="0" cy="0" r="1" gradientUnits="userSpaceOnUse" gradientTransform="matrix(22.5 18.000001 -18.000001 22.5 28.5 19)">
<stop stop-color="#585459" stop-opacity="0.5"/>
<stop offset="1" stop-color="#292329" stop-opacity="0.5"/>
</radialGradient>
<linearGradient id="ps_0_13_566" x1="29" y1="39" x2="104" y2="131" gradientUnits="userSpaceOnUse">
<stop stop-color="#000000" stop-opacity="0.45"/>
<stop offset="0.993" stop-color="#FFFFFF"/>
</linearGradient>
</defs>
</svg>
