<svg width="44" height="44" viewBox="0 0 44 44" fill="none" xmlns="http://www.w3.org/2000/svg" xmlns:xlink="http://www.w3.org/1999/xlink">
<path d="M21.264,22.802L21.012,24.568C21.116,24.583 21.221,24.588 21.325,24.585L21.264,22.802ZM20.836,22.802L20.776,24.585C20.87,24.588 20.964,24.584 21.058,24.572L20.836,22.802ZM26.902,16.967L28.687,16.978L28.687,16.967L26.902,16.967ZM21.517,21.035C21.215,20.992 20.894,20.996 20.615,21.031L21.058,24.572C21.053,24.573 21.052,24.573 21.053,24.573C21.054,24.573 21.056,24.572 21.057,24.572C21.058,24.572 21.056,24.573 21.051,24.572C21.046,24.572 21.033,24.571 21.012,24.568L21.517,21.035ZM20.897,21.019C18.715,20.944 16.982,19.161 16.982,16.967L13.414,16.967C13.414,21.09 16.677,24.445 20.776,24.585L20.897,21.019ZM16.982,16.967C16.982,14.72 18.792,12.9 21.05,12.9L21.05,9.331C16.814,9.331 13.414,12.756 13.414,16.967L16.982,16.967ZM21.05,12.9C23.294,12.9 25.118,14.723 25.118,16.967L28.687,16.967C28.687,12.753 25.265,9.331 21.05,9.331L21.05,12.9ZM25.118,16.957C25.106,19.168 23.377,20.944 21.204,21.019L21.325,24.585C25.433,24.445 28.663,21.083 28.687,16.978L25.118,16.957Z" fill="#58606A"/>
<path d="M33.076,34.577L34.281,35.893C34.698,35.51 34.91,34.952 34.85,34.389L33.076,34.577ZM9.025,34.577L7.251,34.389C7.191,34.952 7.402,35.51 7.82,35.893L9.025,34.577ZM12.183,29.974L11.196,28.488L11.187,28.494L12.183,29.974ZM29.918,29.974L30.914,28.494L30.91,28.491L29.918,29.974ZM31.871,33.261C29.011,35.88 25.226,37.468 21.05,37.468L21.05,41.036C26.153,41.036 30.789,39.09 34.281,35.893L31.871,33.261ZM21.05,37.468C16.875,37.468 13.09,35.88 10.23,33.261L7.82,35.893C11.312,39.09 15.948,41.036 21.05,41.036L21.05,37.468ZM10.799,34.766C10.908,33.744 11.586,32.527 13.179,31.454L11.187,28.494C8.962,29.991 7.499,32.057 7.251,34.389L10.799,34.766ZM13.17,31.46C15.261,30.071 18.118,29.323 21.064,29.323C24.01,29.323 26.855,30.072 28.926,31.457L30.91,28.491C28.127,26.629 24.549,25.755 21.064,25.755C17.578,25.755 13.994,26.63 11.196,28.488L13.17,31.46ZM28.922,31.454C30.515,32.527 31.193,33.744 31.301,34.766L34.85,34.389C34.602,32.057 33.138,29.991 30.914,28.494L28.922,31.454Z" fill="#58606A"/>
<path d="M37.108,21.41C37.108,30.278 29.919,37.468 21.05,37.468L21.05,41.036C31.889,41.036 40.676,32.249 40.676,21.41L37.108,21.41ZM21.05,37.468C12.182,37.468 4.993,30.278 4.993,21.41L1.424,21.41C1.424,32.249 10.211,41.036 21.05,41.036L21.05,37.468ZM4.993,21.41C4.993,12.542 12.182,5.353 21.05,5.353L21.05,1.784C10.211,1.784 1.424,10.571 1.424,21.41L4.993,21.41ZM21.05,5.353C29.919,5.353 37.108,12.542 37.108,21.41L40.676,21.41C40.676,10.571 31.889,1.784 21.05,1.784L21.05,5.353Z" fill="#58606A"/>
</svg>
