<svg width="124" height="124" viewBox="0 0 124 124" fill="none" xmlns="http://www.w3.org/2000/svg" xmlns:xlink="http://www.w3.org/1999/xlink">
<g filter="url(#filter11_218)">
<circle cx="62" cy="62" r="62" fill="url(#pf_0_11_218)"/>
</g>
<circle cx="62" cy="62" r="50" fill="url(#pf_0_11_219)"/>
<circle cx="62" cy="62" r="50" fill="url(#ps_0_11_220)"/>
<path d="M48.921,74.74L47.923,76.218C47.957,76.242 47.992,76.263 48.028,76.284L48.921,74.74ZM58.734,80.413L59.627,78.869L59.627,78.869L58.734,80.413ZM64.086,80.413L63.193,78.869L63.185,78.873L64.086,80.413ZM73.899,74.74L74.792,76.284C74.828,76.263 74.863,76.242 74.898,76.218L73.899,74.74ZM73.899,52.081L74.898,50.602C74.863,50.579 74.828,50.557 74.792,50.536L73.899,52.081ZM64.086,46.407L63.185,47.947L63.193,47.951L64.086,46.407ZM58.734,46.407L59.627,47.951L59.627,47.951L58.734,46.407ZM48.921,52.081L48.028,50.536C47.992,50.557 47.957,50.579 47.923,50.602L48.921,52.081ZM43.568,58.254L43.568,68.548L47.137,68.548L47.137,58.254L43.568,58.254ZM43.568,68.548C43.568,69.46 43.566,70.27 43.633,70.947C43.703,71.661 43.858,72.366 44.253,73.05C44.637,73.717 45.17,74.226 45.75,74.686C46.317,75.136 47.054,75.632 47.923,76.218L49.919,73.261C49.004,72.643 48.402,72.235 47.966,71.89C47.543,71.554 47.406,71.375 47.344,71.268C47.293,71.179 47.226,71.024 47.184,70.599C47.139,70.136 47.137,69.529 47.137,68.548L43.568,68.548ZM48.028,76.284L57.841,81.958L59.627,78.869L49.814,73.195L48.028,76.284ZM57.841,81.958C58.917,82.58 60.217,82.84 61.417,82.84C62.616,82.84 63.916,82.58 64.988,81.953L63.185,78.873C62.794,79.102 62.158,79.271 61.417,79.271C60.677,79.271 60.032,79.103 59.627,78.869L57.841,81.958ZM64.979,81.958L74.792,76.284L73.006,73.195L63.193,78.869L64.979,81.958ZM74.898,76.218C75.767,75.632 76.503,75.136 77.07,74.687C77.65,74.228 78.182,73.72 78.566,73.054C78.961,72.371 79.117,71.668 79.188,70.955C79.254,70.281 79.252,69.473 79.252,68.566L75.684,68.566C75.684,69.542 75.682,70.146 75.636,70.606C75.595,71.027 75.528,71.18 75.477,71.269C75.416,71.375 75.279,71.554 74.854,71.89C74.418,72.235 73.816,72.643 72.901,73.261L74.898,76.218ZM79.252,68.566L79.252,58.254L75.684,58.254L75.684,68.566L79.252,68.566ZM79.252,58.254C79.252,57.347 79.254,56.539 79.188,55.865C79.117,55.152 78.961,54.449 78.566,53.766C78.182,53.1 77.65,52.592 77.07,52.133C76.503,51.684 75.767,51.188 74.898,50.602L72.901,53.559C73.816,54.177 74.418,54.585 74.854,54.93C75.279,55.266 75.416,55.445 75.477,55.552C75.528,55.64 75.595,55.793 75.636,56.214C75.682,56.674 75.684,57.278 75.684,58.254L79.252,58.254ZM74.792,50.536L64.979,44.862L63.193,47.951L73.006,53.625L74.792,50.536ZM64.988,44.867C63.916,44.24 62.616,43.98 61.417,43.98C60.217,43.98 58.917,44.24 57.841,44.862L59.627,47.951C60.032,47.717 60.677,47.549 61.417,47.549C62.158,47.549 62.794,47.718 63.185,47.947L64.988,44.867ZM57.841,44.862L48.028,50.536L49.814,53.625L59.627,47.951L57.841,44.862ZM47.923,50.602C47.054,51.188 46.318,51.684 45.75,52.133C45.171,52.592 44.639,53.1 44.254,53.766C43.859,54.449 43.703,55.152 43.633,55.865C43.566,56.539 43.568,57.347 43.568,58.254L47.137,58.254C47.137,57.278 47.139,56.674 47.184,56.214C47.225,55.793 47.292,55.64 47.343,55.552C47.405,55.445 47.542,55.266 47.966,54.93C48.402,54.585 49.004,54.177 49.919,53.559L47.923,50.602Z" fill="#818181"/>
<path d="M64.978,63.41C64.978,65.381 63.381,66.978 61.41,66.978L61.41,70.547C65.351,70.547 68.547,67.352 68.547,63.41L64.978,63.41ZM61.41,66.978C59.439,66.978 57.842,65.381 57.842,63.41L54.273,63.41C54.273,67.352 57.469,70.547 61.41,70.547L61.41,66.978ZM57.842,63.41C57.842,61.439 59.439,59.842 61.41,59.842L61.41,56.273C57.469,56.273 54.273,59.469 54.273,63.41L57.842,63.41ZM61.41,59.842C63.381,59.842 64.978,61.439 64.978,63.41L68.547,63.41C68.547,59.469 65.351,56.273 61.41,56.273L61.41,59.842Z" fill="#818181"/>
<defs>
<filter id="filter11_218" x="-20" y="-20" width="112" height="112" filterUnits="userSpaceOnUse" color-interpolation-filters="sRGB">
<feFlood flood-opacity="0" result="BackgroundImageFix"/>
<feColorMatrix in="SourceAlpha" type="matrix" values="0 0 0 0 0 0 0 0 0 0 0 0 0 0 0 0 0 0 127 0" result="hardAlpha"/>
<feMorphology radius="0" operator="dilate" in="SourceAlpha" result="0dropshadow"/>
<feOffset dx="10" dy="10"/>
<feGaussianBlur stdDeviation="10"/>
<feComposite in2="hardAlpha" operator="out"/>
<feColorMatrix type="matrix" values="0 0 0 0 0 0 0 0 0 0 0 0 0 0 0 0 0 0 0.25 0"/>
<feBlend mode="normal" in2="BackgroundImageFix" result="0dropshadow"/>
<feBlend mode="normal" in="SourceGraphic" in2="0dropshadow" result="shape"/>
<feGaussianBlur stdDeviation="10" result="1foregroundblur"/>
</filter>
<radialGradient id="pf_0_11_218" cx="0" cy="0" r="1" gradientUnits="userSpaceOnUse" gradientTransform="matrix(41.499998 43.000003 -43.000003 41.499998 17.5 7)">
<stop stop-color="#675D67"/>
<stop offset="1" stop-color="#1A1319"/>
</radialGradient>
<radialGradient id="pf_0_11_219" cx="0" cy="0" r="1" gradientUnits="userSpaceOnUse" gradientTransform="matrix(22.5 18.000001 -18.000001 22.5 28.5 19)">
<stop stop-color="#585459" stop-opacity="0.5"/>
<stop offset="1" stop-color="#292329" stop-opacity="0.5"/>
</radialGradient>
<linearGradient id="ps_0_11_220" x1="29" y1="39" x2="104" y2="131" gradientUnits="userSpaceOnUse">
<stop stop-color="#000000" stop-opacity="0.45"/>
<stop offset="0.993" stop-color="#FFFFFF"/>
</linearGradient>
</defs>
</svg>
