<svg width="780" height="150" viewBox="0 0 780 150" fill="none" xmlns="http://www.w3.org/2000/svg" xmlns:xlink="http://www.w3.org/1999/xlink">
<path d="M0,66.718C0,42.776 12.829,20.669 33.617,8.791L33.617,8.791C43.697,3.03 55.107,0 66.718,0L195,0L270.504,0C284.9,0 299.03,3.885 311.404,11.245L349.1,33.67C374.306,48.664 405.694,48.664 430.9,33.67L468.596,11.246C480.97,3.885 495.1,0 509.496,0L585,0L714.216,0C725.862,0 737.302,3.092 747.362,8.961L747.362,8.961C767.572,20.751 780,42.387 780,65.785L780,72.509C780,115.306 745.306,150 702.508,150L77.199,150C34.563,150 0,115.437 0,72.801L0,66.718Z" fill="#D8E3EE" fill-opacity="0.22" style="mix-blend-mode:overlay"/>
<path d="M0,66.718C0,42.776 12.829,20.669 33.617,8.791L33.617,8.791C43.697,3.03 55.107,0 66.718,0L195,0L270.504,0C284.9,0 299.03,3.885 311.404,11.245L349.1,33.67C374.306,48.664 405.694,48.664 430.9,33.67L468.596,11.246C480.97,3.885 495.1,0 509.496,0L585,0L714.216,0C725.862,0 737.302,3.092 747.362,8.961L747.362,8.961C767.572,20.751 780,42.387 780,65.785L780,72.509C780,115.306 745.306,150 702.508,150L77.199,150C34.563,150 0,115.437 0,72.801L0,66.718Z" stroke="url(#ps_0_18_403)" stroke-width="1" stroke-miterlimit="3.999327" style="mix-blend-mode:overlay"/>
</svg>
