<svg width="44" height="44" viewBox="0 0 44 44" fill="none" xmlns="http://www.w3.org/2000/svg" xmlns:xlink="http://www.w3.org/1999/xlink">
<path d="M9.741,32.74L8.743,34.218C8.777,34.242 8.812,34.263 8.848,34.284L9.741,32.74ZM19.554,38.413L20.447,36.869L20.447,36.869L19.554,38.413ZM24.906,38.413L24.013,36.869L24.005,36.873L24.906,38.413ZM34.719,32.74L35.612,34.284C35.648,34.263 35.683,34.242 35.718,34.218L34.719,32.74ZM34.719,10.081L35.718,8.602C35.683,8.579 35.648,8.557 35.612,8.536L34.719,10.081ZM24.906,4.407L24.005,5.947L24.013,5.951L24.906,4.407ZM19.554,4.407L20.447,5.951L20.447,5.951L19.554,4.407ZM9.741,10.081L8.848,8.536C8.812,8.557 8.777,8.579 8.743,8.602L9.741,10.081ZM4.388,16.254L4.388,26.548L7.957,26.548L7.957,16.254L4.388,16.254ZM4.388,26.548C4.388,27.46 4.386,28.27 4.453,28.947C4.523,29.661 4.678,30.366 5.073,31.05C5.458,31.717 5.99,32.226 6.57,32.686C7.138,33.136 7.874,33.632 8.743,34.218L10.739,31.261C9.824,30.643 9.222,30.235 8.786,29.89C8.363,29.554 8.226,29.375 8.164,29.268C8.113,29.179 8.046,29.024 8.004,28.599C7.959,28.136 7.957,27.529 7.957,26.548L4.388,26.548ZM8.848,34.284L18.661,39.958L20.447,36.869L10.634,31.195L8.848,34.284ZM18.661,39.958C19.737,40.58 21.037,40.84 22.237,40.84C23.436,40.84 24.736,40.58 25.808,39.953L24.005,36.873C23.614,37.102 22.978,37.271 22.237,37.271C21.497,37.271 20.852,37.103 20.447,36.869L18.661,39.958ZM25.799,39.958L35.612,34.284L33.826,31.195L24.013,36.869L25.799,39.958ZM35.718,34.218C36.587,33.632 37.323,33.136 37.89,32.687C38.47,32.228 39.002,31.72 39.386,31.054C39.781,30.371 39.937,29.668 40.008,28.955C40.074,28.281 40.072,27.473 40.072,26.566L36.504,26.566C36.504,27.542 36.502,28.146 36.456,28.606C36.415,29.027 36.348,29.18 36.297,29.269C36.236,29.375 36.099,29.554 35.674,29.89C35.238,30.235 34.636,30.643 33.721,31.261L35.718,34.218ZM40.072,26.566L40.072,16.254L36.504,16.254L36.504,26.566L40.072,26.566ZM40.072,16.254C40.072,15.347 40.074,14.539 40.008,13.865C39.937,13.152 39.781,12.449 39.386,11.766C39.002,11.1 38.47,10.592 37.89,10.133C37.323,9.684 36.587,9.188 35.718,8.602L33.721,11.559C34.636,12.177 35.238,12.585 35.674,12.93C36.099,13.266 36.236,13.445 36.297,13.552C36.348,13.64 36.415,13.793 36.456,14.214C36.502,14.674 36.504,15.278 36.504,16.254L40.072,16.254ZM35.612,8.536L25.799,2.862L24.013,5.951L33.826,11.625L35.612,8.536ZM25.808,2.867C24.736,2.24 23.436,1.98 22.237,1.98C21.037,1.98 19.737,2.24 18.661,2.862L20.447,5.951C20.852,5.717 21.497,5.549 22.237,5.549C22.978,5.549 23.614,5.718 24.005,5.947L25.808,2.867ZM18.661,2.862L8.848,8.536L10.634,11.625L20.447,5.951L18.661,2.862ZM8.743,8.602C7.874,9.188 7.138,9.684 6.57,10.133C5.991,10.592 5.459,11.1 5.074,11.766C4.679,12.449 4.523,13.152 4.453,13.865C4.386,14.539 4.388,15.347 4.388,16.254L7.957,16.254C7.957,15.278 7.959,14.674 8.004,14.214C8.045,13.793 8.112,13.64 8.163,13.552C8.225,13.445 8.362,13.266 8.786,12.93C9.222,12.585 9.824,12.177 10.739,11.559L8.743,8.602Z" fill="#58606A"/>
<path d="M25.799,21.41C25.799,23.381 24.201,24.978 22.23,24.978L22.23,28.547C26.172,28.547 29.367,25.352 29.367,21.41L25.799,21.41ZM22.23,24.978C20.259,24.978 18.662,23.381 18.662,21.41L15.093,21.41C15.093,25.352 18.289,28.547 22.23,28.547L22.23,24.978ZM18.662,21.41C18.662,19.439 20.259,17.842 22.23,17.842L22.23,14.273C18.289,14.273 15.093,17.469 15.093,21.41L18.662,21.41ZM22.23,17.842C24.201,17.842 25.799,19.439 25.799,21.41L29.367,21.41C29.367,17.469 26.172,14.273 22.23,14.273L22.23,17.842Z" fill="#58606A"/>
</svg>
