<svg width="48" height="48" viewBox="0 0 48 48" fill="none" xmlns="http://www.w3.org/2000/svg" xmlns:xlink="http://www.w3.org/1999/xlink">
<path d="M35.5,24C35.5,30.351 30.351,35.5 24,35.5L24,38.5C32.008,38.5 38.5,32.008 38.5,24L35.5,24ZM24,35.5C17.649,35.5 12.5,30.351 12.5,24L9.5,24C9.5,32.008 15.992,38.5 24,38.5L24,35.5ZM12.5,24C12.5,17.649 17.649,12.5 24,12.5L24,9.5C15.992,9.5 9.5,15.992 9.5,24L12.5,24ZM24,12.5C30.351,12.5 35.5,17.649 35.5,24L38.5,24C38.5,15.992 32.008,9.5 24,9.5L24,12.5Z" fill="#717171"/>
<path d="M36.606,8.566C35.825,9.347 35.825,10.613 36.606,11.394C37.387,12.175 38.653,12.175 39.434,11.394L36.606,8.566ZM39.694,11.134C40.475,10.353 40.475,9.087 39.694,8.306C38.913,7.525 37.647,7.525 36.866,8.306L39.694,11.134ZM8.306,36.866C7.525,37.647 7.525,38.913 8.306,39.694C9.087,40.475 10.353,40.475 11.134,39.694L8.306,36.866ZM11.394,39.434C12.175,38.653 12.175,37.387 11.394,36.606C10.613,35.825 9.347,35.825 8.566,36.606L11.394,39.434ZM22,4.16C22,5.265 22.895,6.16 24,6.16C25.105,6.16 26,5.265 26,4.16L22,4.16ZM26,4C26,2.895 25.105,2 24,2C22.895,2 22,2.895 22,4L26,4ZM22,44C22,45.105 22.895,46 24,46C25.105,46 26,45.105 26,44L22,44ZM26,43.84C26,42.735 25.105,41.84 24,41.84C22.895,41.84 22,42.735 22,43.84L26,43.84ZM4.16,26C5.265,26 6.16,25.105 6.16,24C6.16,22.895 5.265,22 4.16,22L4.16,26ZM4,22C2.895,22 2,22.895 2,24C2,25.105 2.895,26 4,26L4,22ZM44,26C45.105,26 46,25.105 46,24C46,22.895 45.105,22 44,22L44,26ZM43.84,22C42.735,22 41.84,22.895 41.84,24C41.84,25.105 42.735,26 43.84,26L43.84,22ZM8.566,11.394C9.347,12.175 10.613,12.175 11.394,11.394C12.175,10.613 12.175,9.347 11.394,8.566L8.566,11.394ZM11.134,8.306C10.353,7.525 9.087,7.525 8.306,8.306C7.525,9.087 7.525,10.353 8.306,11.134L11.134,8.306ZM36.866,39.694C37.647,40.475 38.913,40.475 39.694,39.694C40.475,38.913 40.475,37.647 39.694,36.866L36.866,39.694ZM39.434,36.606C38.653,35.825 37.387,35.825 36.606,36.606C35.825,37.387 35.825,38.653 36.606,39.434L39.434,36.606ZM39.434,11.394L39.694,11.134L36.866,8.306L36.606,8.566L39.434,11.394ZM36.866,8.306L36.606,8.566L39.434,11.394L39.694,11.134L36.866,8.306ZM11.134,39.694L11.394,39.434L8.566,36.606L8.306,36.866L11.134,39.694ZM8.566,36.606L8.306,36.866L11.134,39.694L11.394,39.434L8.566,36.606ZM26,4.16L26,4L22,4L22,4.16L26,4.16ZM22,4L22,4.16L26,4.16L26,4L22,4ZM26,44L26,43.84L22,43.84L22,44L26,44ZM22,43.84L22,44L26,44L26,43.84L22,43.84ZM4.16,22L4,22L4,26L4.16,26L4.16,22ZM4,26L4.16,26L4.16,22L4,22L4,26ZM44,22L43.84,22L43.84,26L44,26L44,22ZM43.84,26L44,26L44,22L43.84,22L43.84,26ZM11.394,8.566L11.134,8.306L8.306,11.134L8.566,11.394L11.394,8.566ZM8.306,11.134L8.566,11.394L11.394,8.566L11.134,8.306L8.306,11.134ZM39.694,36.866L39.434,36.606L36.606,39.434L36.866,39.694L39.694,36.866Z" fill="#717171"/>
</svg>
