<svg width="48" height="48" viewBox="0 0 48 48" fill="none" xmlns="http://www.w3.org/2000/svg" xmlns:xlink="http://www.w3.org/1999/xlink">
<line x1="22.5" y1="6" x2="22.5" y2="17" fill="url(#ps_0_12_81)"/>
<line x1="22.5" y1="31" x2="22.5" y2="42" fill="url(#ps_0_12_82)"/>
<line x1="20" y1="4.5" x2="28" y2="4.5" fill="url(#ps_0_12_83)"/>
<line x1="20" y1="40.5" x2="28" y2="40.5" fill="url(#ps_0_12_84)"/>
<path d="M17.19,21.799C17.907,22.213 18.824,21.968 19.239,21.25C19.653,20.533 19.408,19.616 18.69,19.201L17.19,21.799ZM9.17,13.701C8.453,13.287 7.536,13.532 7.121,14.25C6.707,14.967 6.952,15.884 7.67,16.299L9.17,13.701ZM18.69,19.201L9.17,13.701L7.67,16.299L17.19,21.799L18.69,19.201Z" fill="url(#ps_0_12_85)"/>
<path d="M38.83,34.299C39.547,34.713 40.464,34.468 40.879,33.75C41.293,33.033 41.048,32.116 40.33,31.701L38.83,34.299ZM30.81,26.201C30.093,25.787 29.176,26.032 28.761,26.75C28.347,27.467 28.592,28.384 29.31,28.799L30.81,26.201ZM40.33,31.701L30.81,26.201L29.31,28.799L38.83,34.299L40.33,31.701Z" fill="url(#ps_0_12_86)"/>
<path d="M5.121,17.709C4.707,18.427 4.952,19.344 5.669,19.759C6.387,20.173 7.304,19.928 7.719,19.211L5.121,17.709ZM11.719,12.291C12.133,11.573 11.888,10.656 11.171,10.241C10.453,9.827 9.536,10.072 9.121,10.789L11.719,12.291ZM7.719,19.211L11.719,12.291L9.121,10.789L5.121,17.709L7.719,19.211Z" fill="url(#ps_0_12_87)"/>
<path d="M36.281,35.709C35.867,36.427 36.112,37.344 36.829,37.759C37.547,38.173 38.464,37.928 38.879,37.211L36.281,35.709ZM42.879,30.291C43.293,29.573 43.048,28.656 42.331,28.241C41.613,27.827 40.696,28.072 40.281,28.789L42.879,30.291ZM38.879,37.211L42.879,30.291L40.281,28.789L36.281,35.709L38.879,37.211Z" fill="url(#ps_0_12_88)"/>
<path d="M30.06,27.5L31.357,28.254L31.359,28.25L30.06,27.5ZM17.94,27.5L16.641,28.25L16.643,28.254L17.94,27.5ZM17.94,20.5L16.643,19.746L16.641,19.75L17.94,20.5ZM30.06,20.5L31.359,19.75L31.357,19.746L30.06,20.5ZM29.5,24C29.5,25.006 29.235,25.929 28.761,26.75L31.359,28.25C32.085,26.991 32.5,25.554 32.5,24L29.5,24ZM28.763,26.746C27.8,28.405 26.023,29.5 24,29.5L24,32.5C27.137,32.5 29.88,30.796 31.357,28.254L28.763,26.746ZM24,29.5C21.977,29.5 20.2,28.405 19.237,26.746L16.643,28.254C18.12,30.796 20.863,32.5 24,32.5L24,29.5ZM19.239,26.75C18.765,25.929 18.5,25.006 18.5,24L15.5,24C15.5,25.554 15.915,26.991 16.641,28.25L19.239,26.75ZM18.5,24C18.5,22.994 18.765,22.071 19.239,21.25L16.641,19.75C15.915,21.009 15.5,22.446 15.5,24L18.5,24ZM19.237,21.254C20.2,19.596 21.977,18.5 24,18.5L24,15.5C20.863,15.5 18.12,17.204 16.643,19.746L19.237,21.254ZM24,18.5C26.023,18.5 27.8,19.596 28.763,21.254L31.357,19.746C29.88,17.204 27.137,15.5 24,15.5L24,18.5ZM28.761,21.25C29.235,22.071 29.5,22.994 29.5,24L32.5,24C32.5,22.446 32.085,21.009 31.359,19.75L28.761,21.25Z" fill="url(#ps_0_12_89)"/>
<path d="M40.33,16.299C41.048,15.884 41.293,14.967 40.879,14.25C40.464,13.532 39.547,13.287 38.83,13.701L40.33,16.299ZM29.31,19.201C28.592,19.616 28.347,20.533 28.761,21.25C29.176,21.968 30.093,22.213 30.81,21.799L29.31,19.201ZM38.83,13.701L29.31,19.201L30.81,21.799L40.33,16.299L38.83,13.701Z" fill="url(#ps_0_12_90)"/>
<path d="M18.69,28.799C19.408,28.384 19.653,27.467 19.239,26.75C18.824,26.032 17.907,25.787 17.19,26.201L18.69,28.799ZM7.67,31.701C6.952,32.116 6.707,33.033 7.121,33.75C7.536,34.468 8.453,34.713 9.17,34.299L7.67,31.701ZM17.19,26.201L7.67,31.701L9.17,34.299L18.69,28.799L17.19,26.201Z" fill="url(#ps_0_12_91)"/>
<path d="M40.281,19.211C40.696,19.928 41.613,20.173 42.331,19.759C43.048,19.344 43.293,18.427 42.879,17.709L40.281,19.211ZM38.879,10.789C38.464,10.072 37.547,9.827 36.829,10.241C36.112,10.656 35.867,11.573 36.281,12.291L38.879,10.789ZM42.879,17.709L38.879,10.789L36.281,12.291L40.281,19.211L42.879,17.709Z" fill="url(#ps_0_12_92)"/>
<path d="M9.121,37.211C9.536,37.928 10.453,38.173 11.171,37.759C11.888,37.344 12.133,36.427 11.719,35.709L9.121,37.211ZM7.719,28.789C7.304,28.072 6.387,27.827 5.669,28.241C4.952,28.656 4.707,29.573 5.121,30.291L7.719,28.789ZM11.719,35.709L7.719,28.789L5.121,30.291L9.121,37.211L11.719,35.709Z" fill="url(#ps_0_12_93)"/>
<defs>
<linearGradient id="ps_0_12_81" x1="25" y1="6" x2="25" y2="17" gradientUnits="userSpaceOnUse">
<stop offset="0.292" stop-color="#A01760"/>
<stop offset="0.589" stop-color="#D8036E" stop-opacity="0.583"/>
<stop offset="0.995" stop-color="#DA68A5" stop-opacity="0.47"/>
</linearGradient>
<linearGradient id="ps_0_12_82" x1="25" y1="31" x2="25" y2="42" gradientUnits="userSpaceOnUse">
<stop offset="0.292" stop-color="#A01760"/>
<stop offset="0.589" stop-color="#D8036E" stop-opacity="0.583"/>
<stop offset="0.995" stop-color="#DA68A5" stop-opacity="0.47"/>
</linearGradient>
<linearGradient id="ps_0_12_83" x1="24" y1="6" x2="24" y2="8" gradientUnits="userSpaceOnUse">
<stop offset="0.292" stop-color="#A01760"/>
<stop offset="0.589" stop-color="#D8036E" stop-opacity="0.583"/>
<stop offset="0.995" stop-color="#DA68A5" stop-opacity="0.47"/>
</linearGradient>
<linearGradient id="ps_0_12_84" x1="24" y1="42" x2="24" y2="44" gradientUnits="userSpaceOnUse">
<stop offset="0.292" stop-color="#A01760"/>
<stop offset="0.589" stop-color="#D8036E" stop-opacity="0.583"/>
<stop offset="0.995" stop-color="#DA68A5" stop-opacity="0.47"/>
</linearGradient>
<linearGradient id="ps_0_12_85" x1="13.18" y1="15" x2="13.18" y2="20.5" gradientUnits="userSpaceOnUse">
<stop offset="0.292" stop-color="#A01760"/>
<stop offset="0.589" stop-color="#D8036E" stop-opacity="0.583"/>
<stop offset="0.995" stop-color="#DA68A5" stop-opacity="0.47"/>
</linearGradient>
<linearGradient id="ps_0_12_86" x1="34.82" y1="27.5" x2="34.82" y2="33" gradientUnits="userSpaceOnUse">
<stop offset="0.292" stop-color="#A01760"/>
<stop offset="0.589" stop-color="#D8036E" stop-opacity="0.583"/>
<stop offset="0.995" stop-color="#DA68A5" stop-opacity="0.47"/>
</linearGradient>
<linearGradient id="ps_0_12_87" x1="8.42" y1="11.54" x2="8.42" y2="18.46" gradientUnits="userSpaceOnUse">
<stop offset="0.292" stop-color="#A01760"/>
<stop offset="0.589" stop-color="#D8036E" stop-opacity="0.583"/>
<stop offset="0.995" stop-color="#DA68A5" stop-opacity="0.47"/>
</linearGradient>
<linearGradient id="ps_0_12_88" x1="39.58" y1="29.54" x2="39.58" y2="36.46" gradientUnits="userSpaceOnUse">
<stop offset="0.292" stop-color="#A01760"/>
<stop offset="0.589" stop-color="#D8036E" stop-opacity="0.583"/>
<stop offset="0.995" stop-color="#DA68A5" stop-opacity="0.47"/>
</linearGradient>
<linearGradient id="ps_0_12_89" x1="24" y1="17" x2="24" y2="31" gradientUnits="userSpaceOnUse">
<stop offset="0.292" stop-color="#A01760"/>
<stop offset="0.589" stop-color="#D8036E" stop-opacity="0.583"/>
<stop offset="0.995" stop-color="#DA68A5" stop-opacity="0.47"/>
</linearGradient>
<linearGradient id="ps_0_12_90" x1="34.82" y1="15" x2="34.82" y2="20.5" gradientUnits="userSpaceOnUse">
<stop offset="0.292" stop-color="#A01760"/>
<stop offset="0.589" stop-color="#D8036E" stop-opacity="0.583"/>
<stop offset="0.995" stop-color="#DA68A5" stop-opacity="0.47"/>
</linearGradient>
<linearGradient id="ps_0_12_91" x1="13.18" y1="27.5" x2="13.18" y2="33" gradientUnits="userSpaceOnUse">
<stop offset="0.292" stop-color="#A01760"/>
<stop offset="0.589" stop-color="#D8036E" stop-opacity="0.583"/>
<stop offset="0.995" stop-color="#DA68A5" stop-opacity="0.47"/>
</linearGradient>
<linearGradient id="ps_0_12_92" x1="39.58" y1="11.54" x2="39.58" y2="18.46" gradientUnits="userSpaceOnUse">
<stop offset="0.292" stop-color="#A01760"/>
<stop offset="0.589" stop-color="#D8036E" stop-opacity="0.583"/>
<stop offset="0.995" stop-color="#DA68A5" stop-opacity="0.47"/>
</linearGradient>
<linearGradient id="ps_0_12_93" x1="8.42" y1="29.54" x2="8.42" y2="36.46" gradientUnits="userSpaceOnUse">
<stop offset="0.292" stop-color="#A01760"/>
<stop offset="0.589" stop-color="#D8036E" stop-opacity="0.583"/>
<stop offset="0.995" stop-color="#DA68A5" stop-opacity="0.47"/>
</linearGradient>
</defs>
</svg>
