<svg width="782" height="758" viewBox="0 0 782 758" fill="none" xmlns="http://www.w3.org/2000/svg" xmlns:xlink="http://www.w3.org/1999/xlink">
<circle cx="659" cy="697" r="37" fill="#851A53"/>
<path d="M2,674.718C2,650.776 14.829,628.669 35.617,616.791L35.617,616.791C45.697,611.03 57.107,608 68.718,608L197,608L272.504,608C286.9,608 301.03,611.885 313.404,619.246L351.1,641.67C376.306,656.664 407.694,656.664 432.9,641.67L470.596,619.246C482.97,611.885 497.1,608 511.496,608L587,608L716.216,608C727.862,608 739.302,611.092 749.362,616.961L749.362,616.961C769.572,628.751 782,650.387 782,673.785L782,680.509C782,723.306 747.306,758 704.508,758L79.199,758C36.563,758 2,723.437 2,680.801L2,674.718Z" fill="#D8E3EE" fill-opacity="0.22" style="mix-blend-mode:overlay"/>
<path d="M2,674.718C2,650.776 14.829,628.669 35.617,616.791L35.617,616.791C45.697,611.03 57.107,608 68.718,608L197,608L272.504,608C286.9,608 301.03,611.885 313.404,619.246L351.1,641.67C376.306,656.664 407.694,656.664 432.9,641.67L470.596,619.246C482.97,611.885 497.1,608 511.496,608L587,608L716.216,608C727.862,608 739.302,611.092 749.362,616.961L749.362,616.961C769.572,628.751 782,650.387 782,673.785L782,680.509C782,723.306 747.306,758 704.508,758L79.199,758C36.563,758 2,723.437 2,680.801L2,674.718Z" stroke="url(#ps_0_13_724)" stroke-width="1" stroke-miterlimit="3.999327" style="mix-blend-mode:overlay"/>
<circle cx="390" cy="554" r="68" fill="url(#pf_0_13_725)" stroke="url(#ps_0_13_725)" stroke-width="1" stroke-miterlimit="3.999327"/>
<path d="M153.4,706.421C152.817,706.421 152.257,706.177 151.844,705.743C151.432,705.308 151.2,704.719 151.2,704.105C151.2,703.491 151.432,702.902 151.844,702.468C152.257,702.033 152.817,701.789 153.4,701.789C153.983,701.789 154.543,701.545 154.956,701.111C155.368,700.677 155.6,700.088 155.6,699.474L155.6,680.947C155.6,680.333 155.368,679.744 154.956,679.31C154.543,678.876 153.983,678.632 153.4,678.632L122.6,678.632C122.017,678.632 121.457,678.876 121.044,679.31C120.632,679.744 120.4,680.333 120.4,680.947L120.4,699.474C120.4,700.088 120.632,700.677 121.044,701.111C121.457,701.545 122.017,701.789 122.6,701.789L144.6,701.789C145.183,701.789 145.743,702.033 146.156,702.468C146.568,702.902 146.8,703.491 146.8,704.105C146.8,704.719 146.568,705.308 146.156,705.743C145.743,706.177 145.183,706.421 144.6,706.421L122.6,706.421C120.85,706.421 119.171,705.689 117.933,704.386C116.695,703.083 116,701.316 116,699.474L116,680.947C116,679.105 116.695,677.338 117.933,676.035C119.171,674.732 120.85,674 122.6,674L153.4,674C155.15,674 156.829,674.732 158.067,676.035C159.305,677.338 160,679.105 160,680.947L160,699.474C160,701.316 159.305,703.083 158.067,704.386C156.829,705.689 155.15,706.421 153.4,706.421Z" fill="#58606A"/>
<path d="M147.438,687.223C147.036,686.779 146.808,686.192 146.8,685.579C146.808,684.966 147.036,684.379 147.438,683.935C147.86,683.512 148.418,683.272 149,683.263C149.583,683.272 150.14,683.512 150.562,683.935C150.964,684.379 151.192,684.966 151.2,685.579C151.192,686.192 150.964,686.779 150.562,687.223C150.14,687.646 149.583,687.886 149,687.895C148.418,687.886 147.86,687.646 147.438,687.223Z" fill="#58606A"/>
<path d="M149,697.158L127,697.158C126.417,697.158 125.857,696.914 125.444,696.48C125.032,696.045 124.8,695.456 124.8,694.842C124.8,694.228 125.032,693.639 125.444,693.205C125.857,692.77 126.417,692.526 127,692.526L149,692.526C149.583,692.526 150.143,692.77 150.556,693.205C150.968,693.639 151.2,694.228 151.2,694.842C151.2,695.456 150.968,696.045 150.556,696.48C150.143,696.914 149.583,697.158 149,697.158Z" fill="#58606A"/>
<path d="M129.2,718C128.617,718 128.057,717.756 127.644,717.322C127.232,716.887 127,716.298 127,715.684L127,711.053C127,710.438 127.232,709.849 127.644,709.415C128.057,708.981 128.617,708.737 129.2,708.737C129.783,708.737 130.343,708.981 130.756,709.415C131.168,709.849 131.4,710.438 131.4,711.053L131.4,715.684C131.4,716.298 131.168,716.887 130.756,717.322C130.343,717.756 129.783,718 129.2,718Z" fill="#58606A"/>
<path d="M138,718C137.417,718 136.857,717.756 136.444,717.322C136.032,716.887 135.8,716.298 135.8,715.684L135.8,711.053C135.8,710.438 136.032,709.849 136.444,709.415C136.857,708.981 137.417,708.737 138,708.737C138.584,708.737 139.143,708.981 139.556,709.415C139.968,709.849 140.2,710.438 140.2,711.053L140.2,715.684C140.2,716.298 139.968,716.887 139.556,717.322C139.143,717.756 138.584,718 138,718Z" fill="#58606A"/>
<path d="M146.8,718C146.217,718 145.657,717.756 145.244,717.322C144.832,716.887 144.6,716.298 144.6,715.684L144.6,711.053C144.6,710.438 144.832,709.849 145.244,709.415C145.657,708.981 146.217,708.737 146.8,708.737C147.384,708.737 147.943,708.981 148.356,709.415C148.768,709.849 149,710.438 149,711.053L149,715.684C149,716.298 148.768,716.887 148.356,717.322C147.943,717.756 147.384,718 146.8,718Z" fill="#58606A"/>
<path d="M300.161,698.802C301.039,699.249 302.113,698.9 302.561,698.022C303.008,697.144 302.659,696.07 301.781,695.622L300.161,698.802ZM297.902,696.481L297.902,694.696C297.86,694.696 297.818,694.698 297.777,694.701L297.902,696.481ZM297.902,709.808L297.777,711.588C297.818,711.591 297.86,711.592 297.902,711.592L297.902,709.808ZM317.689,709.808L317.702,708.024L317.689,708.024L317.689,709.808ZM324.183,707.31L323.01,705.966C322.998,705.976 322.987,705.986 322.975,705.997L324.183,707.31ZM319.187,690.914L317.427,691.207C317.557,691.984 318.181,692.585 318.962,692.684L319.187,690.914ZM296.312,697.084C296.646,698.011 297.668,698.493 298.595,698.16C299.522,697.826 300.004,696.804 299.67,695.877L296.312,697.084ZM301.781,695.622C300.58,695.011 299.25,694.696 297.902,694.696L297.902,698.265C298.696,698.265 299.47,698.45 300.161,698.802L301.781,695.622ZM297.777,694.701C287.215,695.445 287.215,710.843 297.777,711.588L298.028,708.029C291.889,707.596 291.889,698.693 298.028,698.26L297.777,694.701ZM297.902,711.592L317.689,711.592L317.689,708.024L297.902,708.024L297.902,711.592ZM317.675,711.592C320.534,711.614 323.29,710.555 325.39,708.624L322.975,705.997C321.543,707.313 319.661,708.039 317.702,708.024L317.675,711.592ZM325.356,708.655C328.907,705.557 329.676,700.931 328.49,697.04C327.304,693.149 324.086,689.738 319.412,689.144L318.962,692.684C322.014,693.071 324.229,695.298 325.077,698.08C325.925,700.862 325.328,703.944 323.01,705.966L325.356,708.655ZM320.947,690.621C320.174,685.978 317.868,682.754 314.799,680.952C311.772,679.174 308.175,678.879 304.944,679.728C301.714,680.577 298.724,682.604 296.954,685.64C295.16,688.717 294.721,692.658 296.312,697.084L299.67,695.877C298.398,692.337 298.829,689.509 300.037,687.437C301.27,685.322 303.415,683.819 305.851,683.179C308.288,682.538 310.889,682.794 312.992,684.029C315.053,685.239 316.809,687.491 317.427,691.207L320.947,690.621Z" fill="#58606A"/>
<path d="M315.681,690.502C315.02,690.833 314.752,691.636 315.082,692.297C315.413,692.958 316.216,693.226 316.877,692.896L315.681,690.502ZM319.282,692.305C320.021,692.293 320.609,691.683 320.597,690.944C320.584,690.205 319.974,689.617 319.236,689.629L319.282,692.305ZM316.877,692.896C317.627,692.521 318.447,692.32 319.282,692.305L319.236,689.629C318,689.651 316.787,689.949 315.681,690.502L316.877,692.896Z" fill="#58606A"/>
<path d="M471.741,706.74L470.743,708.218C470.777,708.242 470.812,708.263 470.848,708.284L471.741,706.74ZM481.554,712.413L482.447,710.869L482.447,710.869L481.554,712.413ZM486.906,712.413L486.013,710.869L486.005,710.873L486.906,712.413ZM496.719,706.74L497.612,708.284C497.648,708.263 497.683,708.242 497.718,708.218L496.719,706.74ZM496.719,684.081L497.718,682.602C497.683,682.579 497.648,682.557 497.612,682.536L496.719,684.081ZM486.906,678.407L486.005,679.947L486.013,679.951L486.906,678.407ZM481.554,678.407L482.447,679.951L482.447,679.951L481.554,678.407ZM471.741,684.081L470.848,682.536C470.812,682.557 470.777,682.579 470.743,682.602L471.741,684.081ZM466.388,690.254L466.388,700.548L469.957,700.548L469.957,690.254L466.388,690.254ZM466.388,700.548C466.388,701.46 466.386,702.27 466.453,702.947C466.523,703.661 466.678,704.366 467.073,705.05C467.457,705.717 467.99,706.226 468.57,706.686C469.138,707.136 469.874,707.632 470.743,708.218L472.739,705.261C471.824,704.643 471.222,704.235 470.786,703.89C470.363,703.554 470.226,703.375 470.164,703.268C470.113,703.179 470.046,703.024 470.004,702.599C469.959,702.136 469.957,701.529 469.957,700.548L466.388,700.548ZM470.848,708.284L480.661,713.958L482.447,710.869L472.634,705.195L470.848,708.284ZM480.661,713.958C481.737,714.58 483.037,714.84 484.237,714.84C485.436,714.84 486.736,714.58 487.808,713.953L486.005,710.873C485.614,711.102 484.978,711.271 484.237,711.271C483.497,711.271 482.852,711.103 482.447,710.869L480.661,713.958ZM487.799,713.958L497.612,708.284L495.826,705.195L486.013,710.869L487.799,713.958ZM497.718,708.218C498.587,707.632 499.323,707.136 499.89,706.687C500.47,706.228 501.002,705.72 501.386,705.054C501.781,704.371 501.937,703.668 502.008,702.955C502.074,702.281 502.072,701.473 502.072,700.566L498.504,700.566C498.504,701.542 498.502,702.146 498.456,702.606C498.415,703.027 498.348,703.18 498.297,703.269C498.236,703.375 498.099,703.554 497.674,703.89C497.238,704.235 496.636,704.643 495.721,705.261L497.718,708.218ZM502.072,700.566L502.072,690.254L498.504,690.254L498.504,700.566L502.072,700.566ZM502.072,690.254C502.072,689.347 502.074,688.539 502.008,687.865C501.937,687.152 501.781,686.449 501.386,685.766C501.002,685.1 500.47,684.592 499.89,684.133C499.323,683.684 498.587,683.188 497.718,682.602L495.721,685.559C496.636,686.177 497.238,686.585 497.674,686.93C498.099,687.266 498.236,687.445 498.297,687.552C498.348,687.64 498.415,687.793 498.456,688.214C498.502,688.674 498.504,689.278 498.504,690.254L502.072,690.254ZM497.612,682.536L487.799,676.862L486.013,679.951L495.826,685.625L497.612,682.536ZM487.808,676.867C486.736,676.24 485.436,675.98 484.237,675.98C483.037,675.98 481.737,676.24 480.661,676.862L482.447,679.951C482.852,679.717 483.497,679.549 484.237,679.549C484.978,679.549 485.614,679.718 486.005,679.947L487.808,676.867ZM480.661,676.862L470.848,682.536L472.634,685.625L482.447,679.951L480.661,676.862ZM470.743,682.602C469.874,683.188 469.138,683.684 468.57,684.133C467.991,684.592 467.459,685.1 467.074,685.766C466.679,686.449 466.523,687.152 466.453,687.865C466.386,688.539 466.388,689.347 466.388,690.254L469.957,690.254C469.957,689.278 469.959,688.674 470.004,688.214C470.045,687.793 470.112,687.64 470.163,687.552C470.225,687.445 470.362,687.266 470.786,686.93C471.222,686.585 471.824,686.177 472.739,685.559L470.743,682.602Z" fill="#58606A"/>
<path d="M487.799,695.41C487.799,697.381 486.201,698.978 484.23,698.978L484.23,702.547C488.172,702.547 491.367,699.352 491.367,695.41L487.799,695.41ZM484.23,698.978C482.259,698.978 480.662,697.381 480.662,695.41L477.094,695.41C477.094,699.352 480.289,702.547 484.23,702.547L484.23,698.978ZM480.662,695.41C480.662,693.439 482.259,691.842 484.23,691.842L484.23,688.273C480.289,688.273 477.094,691.469 477.094,695.41L480.662,695.41ZM484.23,691.842C486.201,691.842 487.799,693.439 487.799,695.41L491.367,695.41C491.367,691.469 488.172,688.273 484.23,688.273L484.23,691.842Z" fill="#58606A"/>
<path d="M659.264,696.802L659.012,698.568C659.116,698.583 659.221,698.588 659.325,698.585L659.264,696.802ZM658.836,696.802L658.775,698.585C658.87,698.588 658.964,698.584 659.058,698.572L658.836,696.802ZM664.902,690.967L666.687,690.978L666.687,690.967L664.902,690.967ZM659.517,695.035C659.215,694.992 658.893,694.996 658.615,695.031L659.058,698.572C659.053,698.573 659.051,698.573 659.053,698.573C659.054,698.573 659.056,698.572 659.057,698.572C659.058,698.572 659.056,698.573 659.051,698.572C659.046,698.572 659.033,698.571 659.012,698.568L659.517,695.035ZM658.897,695.019C656.715,694.944 654.982,693.161 654.982,690.967L651.414,690.967C651.414,695.09 654.677,698.445 658.775,698.585L658.897,695.019ZM654.982,690.967C654.982,688.72 656.792,686.9 659.05,686.9L659.05,683.331C654.814,683.331 651.414,686.756 651.414,690.967L654.982,690.967ZM659.05,686.9C661.294,686.9 663.118,688.723 663.118,690.967L666.687,690.967C666.687,686.753 663.265,683.331 659.05,683.331L659.05,686.9ZM663.118,690.957C663.106,693.168 661.376,694.944 659.204,695.019L659.325,698.585C663.433,698.445 666.663,695.083 666.687,690.978L663.118,690.957Z" fill="url(#ps_0_i_13_737;10_202)"/>
<path d="M671.076,708.577L672.281,709.893C672.698,709.51 672.91,708.952 672.85,708.389L671.076,708.577ZM647.025,708.577L645.251,708.389C645.191,708.952 645.402,709.51 645.82,709.893L647.025,708.577ZM650.183,703.974L649.196,702.488L649.187,702.494L650.183,703.974ZM667.918,703.974L668.914,702.494L668.91,702.491L667.918,703.974ZM669.871,707.261C667.011,709.88 663.225,711.468 659.05,711.468L659.05,715.036C664.153,715.036 668.789,713.09 672.281,709.893L669.871,707.261ZM659.05,711.468C654.875,711.468 651.09,709.88 648.23,707.261L645.82,709.893C649.312,713.09 653.948,715.036 659.05,715.036L659.05,711.468ZM648.799,708.766C648.908,707.744 649.585,706.527 651.179,705.454L649.187,702.494C646.962,703.991 645.499,706.057 645.251,708.389L648.799,708.766ZM651.17,705.46C653.261,704.071 656.118,703.323 659.064,703.323C662.01,703.323 664.855,704.072 666.925,705.457L668.91,702.491C666.127,700.629 662.549,699.755 659.064,699.755C655.577,699.755 651.993,700.63 649.196,702.488L651.17,705.46ZM666.922,705.454C668.515,706.527 669.193,707.744 669.301,708.766L672.85,708.389C672.602,706.057 671.138,703.991 668.914,702.494L666.922,705.454Z" fill="url(#ps_0_i_13_737;10_203)"/>
<path d="M675.108,695.41C675.108,704.278 667.918,711.468 659.05,711.468L659.05,715.036C669.889,715.036 678.676,706.249 678.676,695.41L675.108,695.41ZM659.05,711.468C650.182,711.468 642.993,704.278 642.993,695.41L639.424,695.41C639.424,706.249 648.211,715.036 659.05,715.036L659.05,711.468ZM642.993,695.41C642.993,686.542 650.182,679.353 659.05,679.353L659.05,675.784C648.211,675.784 639.424,684.571 639.424,695.41L642.993,695.41ZM659.05,679.353C667.918,679.353 675.108,686.542 675.108,695.41L678.676,695.41C678.676,684.571 669.889,675.784 659.05,675.784L659.05,679.353Z" fill="url(#ps_0_i_13_737;10_204)"/>
<line x1="375" y1="551" x2="405" y2="551" stroke="#CF1E7C" stroke-width="3" stroke-miterlimit="3.999327" stroke-linecap="round" stroke-linejoin="round"/>
<line x1="387" y1="539" x2="387" y2="569" stroke="#CF1E7C" stroke-width="3" stroke-miterlimit="3.999327" stroke-linecap="round" stroke-linejoin="round"/>
<path d="M199.998,1.696L611.995,3.088L612.001,1.088L200.005,-0.304L199.998,1.696Z" transform="rotate(-0.387 406 1.392)" fill="url(#ps_0_17_198)"/>
<path d="M199.998,110.48L611.995,111.872L612.001,109.872L200.005,108.48L199.998,110.48Z" transform="rotate(-0.387 406 110.176)" fill="url(#ps_0_17_200)"/>
<path d="M201.133,219.264L613.13,220.656L613.138,218.656L201.14,217.264L201.133,219.264ZM200.748,333.264L612.746,334.655L612.752,332.655L200.755,331.264L200.748,333.264ZM200.376,443.262L612.374,444.654L612.38,442.654L200.383,441.262L200.376,443.262Z" transform="rotate(-0.387 406.757 330.959)" fill="url(#ps_0_17_201)"/>
<defs>
<linearGradient id="pf_0_13_725" x1="355" y1="530" x2="484" y2="622" gradientUnits="userSpaceOnUse">
<stop stop-color="#290E2C" stop-opacity="0.3"/>
<stop offset="1" stop-color="#837474" stop-opacity="0.3"/>
</linearGradient>
<linearGradient id="ps_0_i_13_737;10_202" x1="659.05" y1="685.115" x2="659.05" y2="696.802" gradientUnits="userSpaceOnUse">
<stop stop-color="#DA2183"/>
<stop offset="0.323" stop-color="#F634D7" stop-opacity="0.677"/>
<stop offset="0.693" stop-color="#511A3E" stop-opacity="0.313"/>
<stop offset="1" stop-color="#D01277"/>
</linearGradient>
<linearGradient id="ps_0_i_13_737;10_203" x1="659.05" y1="701.539" x2="659.05" y2="713.252" gradientUnits="userSpaceOnUse">
<stop stop-color="#DA2183"/>
<stop offset="0.323" stop-color="#F634D7" stop-opacity="0.677"/>
<stop offset="0.693" stop-color="#511A3E" stop-opacity="0.313"/>
<stop offset="1" stop-color="#D01277"/>
</linearGradient>
<linearGradient id="ps_0_i_13_737;10_204" x1="659.05" y1="677.568" x2="659.05" y2="713.252" gradientUnits="userSpaceOnUse">
<stop stop-color="#DA2183"/>
<stop offset="0.323" stop-color="#F634D7" stop-opacity="0.677"/>
<stop offset="0.693" stop-color="#511A3E" stop-opacity="0.313"/>
<stop offset="1" stop-color="#D01277"/>
</linearGradient>
<linearGradient id="ps_0_17_198" x1="775.842" y1="2.759" x2="387.684" y2="4.07" gradientUnits="userSpaceOnUse">
<stop stop-color="#141314"/>
<stop offset="0.333" stop-color="#895176"/>
<stop offset="0.667" stop-color="#B02380"/>
<stop offset="1" stop-color="#A31E61"/>
</linearGradient>
<linearGradient id="ps_0_17_200" x1="775.842" y1="111.542" x2="387.684" y2="112.854" gradientUnits="userSpaceOnUse">
<stop stop-color="#141314"/>
<stop offset="0.333" stop-color="#895176"/>
<stop offset="0.667" stop-color="#B02380"/>
<stop offset="1" stop-color="#A31E61"/>
</linearGradient>
<linearGradient id="ps_0_17_201" x1="776.599" y1="3.75" x2="388.44" y2="5.061" gradientUnits="userSpaceOnUse">
<stop stop-color="#141314"/>
<stop offset="0.333" stop-color="#895176"/>
<stop offset="0.667" stop-color="#B02380"/>
<stop offset="1" stop-color="#A31E61"/>
</linearGradient>
</defs>
</svg>
