<svg width="166" height="166" viewBox="0 0 166 166" fill="none" xmlns="http://www.w3.org/2000/svg" xmlns:xlink="http://www.w3.org/1999/xlink">
<path d="M112.396,48.417C112.396,64.652 99.235,77.813 83,77.813L83,88.188C104.965,88.188 122.771,70.382 122.771,48.417L112.396,48.417ZM83,77.813C66.765,77.813 53.604,64.652 53.604,48.417L43.229,48.417C43.229,70.382 61.035,88.188 83,88.188L83,77.813ZM53.604,48.417C53.604,32.182 66.765,19.021 83,19.021L83,8.646C61.035,8.646 43.229,26.452 43.229,48.417L53.604,48.417ZM83,19.021C99.235,19.021 112.396,32.182 112.396,48.417L122.771,48.417C122.771,26.452 104.965,8.646 83,8.646L83,19.021Z" fill="#D2D5DA"/>
<path d="M137.227,152.167C137.227,155.032 139.55,157.354 142.414,157.354C145.279,157.354 147.602,155.032 147.602,152.167L137.227,152.167ZM18.399,152.167C18.399,155.032 20.721,157.354 23.586,157.354C26.451,157.354 28.774,155.032 28.774,152.167L18.399,152.167ZM147.602,152.167C147.602,121.589 117.604,98.563 83,98.563L83,108.938C113.967,108.938 137.227,129.209 137.227,152.167L147.602,152.167ZM83,98.563C48.397,98.563 18.399,121.589 18.399,152.167L28.774,152.167C28.774,129.209 52.034,108.938 83,108.938L83,98.563Z" fill="#D2D5DA"/>
</svg>
