<svg width="48" height="48" viewBox="0 0 48 48" fill="none" xmlns="http://www.w3.org/2000/svg" xmlns:xlink="http://www.w3.org/1999/xlink">
<path d="M32.5,14C32.5,18.694 28.694,22.5 24,22.5L24,25.5C30.351,25.5 35.5,20.351 35.5,14L32.5,14ZM24,22.5C19.306,22.5 15.5,18.694 15.5,14L12.5,14C12.5,20.351 17.649,25.5 24,25.5L24,22.5ZM15.5,14C15.5,9.306 19.306,5.5 24,5.5L24,2.5C17.649,2.5 12.5,7.649 12.5,14L15.5,14ZM24,5.5C28.694,5.5 32.5,9.306 32.5,14L35.5,14C35.5,7.649 30.351,2.5 24,2.5L24,5.5Z" fill="#A01760" fill-opacity="0.7"/>
<path d="M41.18,44L41.18,45.5C42.008,45.5 42.68,44.828 42.68,44L41.18,44ZM6.82,44L5.32,44C5.32,44.828 5.992,45.5 6.82,45.5L6.82,44ZM42.68,44C42.68,35.158 34.006,28.5 24,28.5L24,31.5C32.954,31.5 39.68,37.362 39.68,44L42.68,44ZM24,28.5C13.994,28.5 5.32,35.158 5.32,44L8.32,44C8.32,37.362 15.046,31.5 24,31.5L24,28.5ZM6.82,45.5L41.18,45.5L41.18,42.5L6.82,42.5L6.82,45.5Z" fill="#A01760" fill-opacity="0.7"/>
</svg>
