<svg width="66" height="66" viewBox="0 0 66 66" fill="none" xmlns="http://www.w3.org/2000/svg" xmlns:xlink="http://www.w3.org/1999/xlink">
<path d="M32.69,64.904C24.02,64.904 15.705,61.459 9.575,55.329C3.444,49.198 0,40.883 0,32.213C0,23.543 3.444,15.228 9.575,9.098C15.705,2.967 24.02,-0.477 32.69,-0.477C41.36,-0.477 49.675,2.967 55.806,9.098C61.937,15.228 65.381,23.543 65.381,32.213C65.381,40.883 61.937,49.198 55.806,55.329C49.675,61.459 41.36,64.904 32.69,64.904ZM39.228,22.406C39.228,23.321 38.542,25.021 37.855,25.675L32.69,30.84C30.827,32.736 29.421,36.071 29.421,38.751L29.421,42.02L35.959,42.02L35.959,38.751C35.959,37.803 36.646,36.136 37.332,35.482L42.497,30.317C44.361,28.421 45.767,25.087 45.767,22.406C45.767,18.938 44.389,15.612 41.937,13.16C39.484,10.708 36.158,9.33 32.69,9.33C29.222,9.33 25.896,10.708 23.444,13.16C20.992,15.612 19.614,18.938 19.614,22.406L26.152,22.406C26.152,20.672 26.841,19.009 28.067,17.783C29.293,16.557 30.956,15.868 32.69,15.868C34.424,15.868 36.087,16.557 37.313,17.783C38.54,19.009 39.228,20.672 39.228,22.406ZM29.421,48.558L29.421,55.096L35.959,55.096L35.959,48.558L29.421,48.558Z" fill="url(#pf_0_14_188)"/>
<defs>
<linearGradient id="pf_0_14_188" x1="32.69" y1="-0.477" x2="32.69" y2="64.904" gradientUnits="userSpaceOnUse">
<stop offset="0.281" stop-color="#AD1D6A"/>
<stop offset="0.766" stop-color="#BB0667" stop-opacity="0.96"/>
</linearGradient>
</defs>
</svg>
