<svg width="40" height="48" viewBox="0 0 40 48" fill="none" xmlns="http://www.w3.org/2000/svg" xmlns:xlink="http://www.w3.org/1999/xlink">
<path d="M21.139,2.768L20.162,4.077L20.166,4.08L21.139,2.768ZM18.372,2.768L19.337,4.086L19.349,4.077L18.372,2.768ZM1.403,28.227L3.037,28.227L3.037,28.217L1.403,28.227ZM38.153,28.249L36.52,28.245L36.52,28.249L38.153,28.249ZM22.117,1.46C20.72,0.417 18.791,0.417 17.395,1.46L19.349,4.077C19.586,3.9 19.925,3.9 20.162,4.077L22.117,1.46ZM17.407,1.451C15.2,3.067 10.822,6.523 6.989,11.138C3.181,15.724 -0.267,21.67 -0.23,28.236L3.037,28.217C3.006,22.784 5.887,17.579 9.502,13.225C13.093,8.901 17.233,5.627 19.337,4.086L17.407,1.451ZM-0.23,28.227C-0.23,38.903 8.798,47.5 19.778,47.5L19.778,44.233C10.478,44.233 3.037,36.977 3.037,28.227L-0.23,28.227ZM19.778,47.5C30.756,47.5 39.787,38.927 39.787,28.249L36.52,28.249C36.52,36.996 29.081,44.233 19.778,44.233L19.778,47.5ZM39.787,28.252C39.799,21.771 36.331,15.827 32.521,11.225C28.683,6.588 24.308,3.085 22.112,1.457L20.166,4.08C22.258,5.631 26.402,8.955 30.004,13.308C33.635,17.694 36.53,22.9 36.52,28.245L39.787,28.252Z" fill="url(#ps_0_18_496)"/>
<defs>
<linearGradient id="ps_0_18_496" x1="19.778" y1="2.311" x2="19.778" y2="45.867" gradientUnits="userSpaceOnUse">
<stop stop-color="#BD0964"/>
<stop offset="1" stop-color="#EA4E9D"/>
</linearGradient>
</defs>
</svg>
