<svg width="22" height="38" viewBox="0 0 22 38" fill="none" xmlns="http://www.w3.org/2000/svg" xmlns:xlink="http://www.w3.org/1999/xlink">
<path d="M15.879,35.961C17.05,37.133 18.95,37.133 20.121,35.961C21.293,34.79 21.293,32.89 20.121,31.719L15.879,35.961ZM4.96,20.8L7.081,18.679L4.96,20.8ZM4.96,15.2L7.081,17.321L4.96,15.2ZM20.121,4.281C21.293,3.11 21.293,1.21 20.121,0.039C18.95,-1.133 17.05,-1.133 15.879,0.039L20.121,4.281ZM20.121,31.719L7.081,18.679L2.839,22.921L15.879,35.961L20.121,31.719ZM7.081,18.679C6.713,18.31 6.713,17.69 7.081,17.321L2.839,13.079C0.127,15.79 0.127,20.21 2.839,22.921L7.081,18.679ZM7.081,17.321L20.121,4.281L15.879,0.039L2.839,13.079L7.081,17.321Z" fill="#818181"/>
</svg>
