<svg width="388" height="274" viewBox="0 0 388 274" fill="none" xmlns="http://www.w3.org/2000/svg" xmlns:xlink="http://www.w3.org/1999/xlink">
<g filter="url(#filter18_491)">
<path d="M315.202,104.239C316.658,98.128 317.41,91.878 317.442,85.605C317.472,65.562 310.246,46.145 297.024,30.749C283.804,15.353 265.43,4.956 245.114,1.375C224.798,-2.205 203.832,1.258 185.879,11.16C167.927,21.062 154.13,36.773 146.899,55.548C134.73,51.127 121.53,50.097 108.79,52.573C96.049,55.049 84.275,60.934 74.798,69.562C65.32,78.19 58.516,89.218 55.154,101.402C51.792,113.585 52.005,126.438 55.77,138.51C38.741,142.056 23.665,151.59 13.441,165.276C3.216,178.963 -1.433,195.836 0.386,212.65C2.206,229.464 10.366,245.03 23.297,256.356C36.227,267.682 53.016,273.966 70.432,274L299.798,274C321.844,274.022 343.098,266.02 359.364,251.576C375.63,237.13 385.726,217.29 387.66,195.973C389.594,174.655 383.226,153.408 369.812,136.425C356.398,119.443 336.912,107.958 315.202,104.239Z" fill="url(#pf_0_18_491)"/>
</g>
<defs>
<filter id="filter18_491" x="-10" y="-10" width="214" height="157" filterUnits="userSpaceOnUse" color-interpolation-filters="sRGB">
<feFlood flood-opacity="0" result="BackgroundImageFix"/>
<feColorMatrix in="SourceAlpha" type="matrix" values="0 0 0 0 0 0 0 0 0 0 0 0 0 0 0 0 0 0 127 0" result="hardAlpha"/>
<feMorphology radius="0" operator="dilate" in="SourceAlpha" result="0dropshadow"/>
<feOffset dx="10" dy="0"/>
<feGaussianBlur stdDeviation="5"/>
<feComposite in2="hardAlpha" operator="out"/>
<feColorMatrix type="matrix" values="0 0 0 0 0 0 0 0 0 0 0 0 0 0 0 0 0 0 0.25 0"/>
<feBlend mode="normal" in2="BackgroundImageFix" result="0dropshadow"/>
<feBlend mode="normal" in="SourceGraphic" in2="0dropshadow" result="shape"/>
<feColorMatrix in="SourceAlpha" type="matrix" values="0 0 0 0 0 0 0 0 0 0 0 0 0 0 0 0 0 0 127 0" result="hardAlpha"/>
<feMorphology radius="0" operator="erode" in="SourceAlpha" result="1innershadow"/>
<feOffset dx="10" dy="10"/>
<feGaussianBlur stdDeviation="7.5"/>
<feComposite in2="hardAlpha" operator="arithmetic" k2="-1" k3="1"/>
<feColorMatrix type="matrix" values="0 0 0 0 0 0 0 0 0 0 0 0 0 0 0 0 0 0 0.25 0"/>
<feBlend mode="normal" in2="shape" result="1innershadow"/>
<feColorMatrix in="SourceAlpha" type="matrix" values="0 0 0 0 0 0 0 0 0 0 0 0 0 0 0 0 0 0 127 0" result="hardAlpha"/>
<feMorphology radius="0" operator="erode" in="SourceAlpha" result="2innershadow"/>
<feOffset dx="-10" dy="-10"/>
<feGaussianBlur stdDeviation="5"/>
<feComposite in2="hardAlpha" operator="arithmetic" k2="-1" k3="1"/>
<feColorMatrix type="matrix" values="0 0 0 0 0 0 0 0 0 0 0 0 0 0 0 0 0 0 0.25 0"/>
<feBlend mode="normal" in2="1innershadow" result="2innershadow"/>
</filter>
<linearGradient id="pf_0_18_491" x1="194" y1="0" x2="194" y2="274" gradientUnits="userSpaceOnUse">
<stop offset="0.187" stop-color="#E4DEE4"/>
<stop offset="1" stop-color="#FFFFFF" stop-opacity="0"/>
</linearGradient>
</defs>
</svg>
